<svg xmlns="http://www.w3.org/2000/svg" xmlns:xlink="http://www.w3.org/1999/xlink" width="1501" zoomAndPan="magnify" viewBox="0 0 1125.75 464.999988" height="620" preserveAspectRatio="xMidYMid meet" version="1.0"><defs><g/><clipPath id="99a732858f"><path d="M 468 234.820312 L 721.441406 234.820312 L 721.441406 464.949219 L 468 464.949219 Z M 468 234.820312 " clip-rule="nonzero"/></clipPath></defs><g fill="#acbca2" fill-opacity="1"><g transform="translate(195.48829, 167.832094)"><g><path d="M 95.136719 -22.226562 C 94.550781 -23.101562 93.382812 -23.296875 92.601562 -22.710938 C 82.660156 -15.695312 73.691406 -8.96875 65.503906 -2.632812 C 59.949219 -11.792969 45.132812 -17.839844 25.34375 -25.832031 C 22.808594 -26.804688 20.273438 -27.878906 17.644531 -28.949219 C 9.84375 -32.070312 7.117188 -36.945312 9.261719 -43.667969 C 12.183594 -53.027344 24.464844 -65.40625 41.136719 -76.03125 C 57.023438 -86.070312 72.621094 -91.726562 79.929688 -90.066406 C 82.269531 -89.582031 84.902344 -88.214844 84.121094 -82.757812 C 83.925781 -81.78125 84.707031 -80.808594 85.683594 -80.613281 C 86.753906 -80.515625 87.730469 -81.199219 87.828125 -82.269531 C 88.996094 -90.554688 83.925781 -92.992188 80.808594 -93.773438 C 63.066406 -97.769531 12.867188 -67.648438 5.652344 -44.839844 C 3.023438 -36.261719 6.726562 -29.339844 16.179688 -25.441406 C 18.8125 -24.367188 21.445312 -23.296875 23.980469 -22.320312 C 45.230469 -13.746094 58.289062 -8.089844 62.578125 -0.390625 C 28.074219 26.609375 10.527344 45.910156 13.453125 54.195312 C 13.9375 55.5625 15.402344 57.609375 19.496094 57.609375 C 19.789062 57.609375 20.175781 57.609375 20.46875 57.609375 C 33.53125 56.632812 61.996094 37.136719 67.453125 9.550781 C 68.136719 6.335938 67.941406 3.410156 67.160156 0.78125 C 75.445312 -5.554688 84.609375 -12.378906 94.746094 -19.59375 C 95.625 -20.273438 95.820312 -21.445312 95.136719 -22.226562 Z M 63.75 8.871094 C 58.484375 35.1875 30.898438 53.027344 20.175781 53.90625 C 19.203125 53.90625 17.351562 53.90625 17.058594 52.929688 C 15.984375 50.003906 21.445312 41.71875 30.996094 32.070312 C 39.089844 23.785156 50.101562 14.132812 63.847656 3.3125 C 64.238281 5.070312 64.140625 6.824219 63.75 8.871094 Z M 63.75 8.871094 "/></g></g></g><g fill="#acbca2" fill-opacity="1"><g transform="translate(286.920158, 167.832094)"><g><path d="M 38.796875 -21.054688 C 37.917969 -21.542969 36.75 -21.25 36.261719 -20.371094 C 27 -5.554688 19.203125 1.070312 17.546875 0.488281 C 17.546875 0.488281 15.597656 -0.585938 17.449219 -11.792969 C 18.128906 -15.597656 18.421875 -17.742188 16.570312 -18.519531 C 14.816406 -19.203125 13.746094 -17.742188 11.695312 -14.816406 C 10.039062 -12.476562 7.796875 -9.359375 5.359375 -7.214844 C 5.070312 -7.019531 3.996094 -6.042969 3.507812 -6.433594 C 2.046875 -7.601562 1.753906 -13.9375 5.167969 -19.789062 C 5.75 -20.664062 5.359375 -21.835938 4.484375 -22.417969 C 3.605469 -22.90625 2.4375 -22.613281 1.949219 -21.738281 C -1.949219 -14.914062 -2.339844 -6.433594 1.070312 -3.605469 C 1.949219 -2.828125 4.386719 -1.460938 7.796875 -4.289062 C 10.039062 -6.238281 11.988281 -8.773438 13.550781 -10.917969 C 12.183594 -1.851562 12.964844 2.730469 16.179688 3.996094 C 16.667969 4.191406 17.15625 4.191406 17.546875 4.191406 C 24.953125 4.191406 36.945312 -14.523438 39.378906 -18.421875 C 39.964844 -19.300781 39.671875 -20.46875 38.796875 -21.054688 Z M 38.796875 -21.054688 "/></g></g></g><g fill="#acbca2" fill-opacity="1"><g transform="translate(321.816332, 167.832094)"><g><path d="M 44.644531 -21.542969 C 44.058594 -22.417969 42.890625 -22.613281 42.109375 -22.128906 C 35.285156 -17.742188 26.511719 -11.988281 17.449219 -4.582031 C 18.421875 -11.308594 19.398438 -18.421875 20.371094 -26.027344 C 20.46875 -27 19.886719 -27.78125 19.105469 -28.074219 C 18.226562 -28.367188 17.253906 -27.976562 16.863281 -27.195312 C 15.207031 -24.464844 10.625 -17.449219 6.824219 -12.378906 C 5.265625 -10.429688 4.386719 -9.648438 3.898438 -9.359375 C 2.925781 -12.476562 5.945312 -26.417969 12.085938 -31.875 C 14.523438 -34.117188 16.765625 -34.117188 19.203125 -31.972656 C 19.984375 -31.289062 21.152344 -31.289062 21.835938 -32.070312 C 22.515625 -32.847656 22.417969 -34.019531 21.738281 -34.703125 C 17.839844 -38.210938 14.328125 -37.625 12.085938 -36.457031 C 4.191406 -32.558594 -0.585938 -16.375 0.0976562 -9.84375 C 0.292969 -6.921875 1.65625 -5.847656 2.730469 -5.554688 C 5.359375 -4.875 7.894531 -7.601562 9.746094 -10.136719 C 11.695312 -12.671875 13.746094 -15.597656 15.597656 -18.226562 C 14.816406 -12.085938 13.9375 -6.335938 13.0625 -0.878906 C 2.632812 8.1875 -7.796875 19.59375 -15.695312 34.019531 C -21.640625 44.742188 -23.589844 53.808594 -24.175781 59.460938 C -24.953125 66.867188 -23.882812 73.011719 -21.152344 76.324219 C -19.691406 78.175781 -17.839844 79.152344 -15.792969 79.152344 C -15.207031 79.152344 -14.523438 79.054688 -13.839844 78.859375 C -4.484375 76.226562 7.796875 54.003906 16.472656 1.070312 C 26.609375 -7.601562 36.554688 -14.035156 44.058594 -18.910156 C 44.9375 -19.496094 45.230469 -20.664062 44.644531 -21.542969 Z M -14.816406 75.25 C -16.179688 75.640625 -17.253906 75.25 -18.226562 73.984375 C -21.933594 69.402344 -22.515625 54.097656 -12.476562 35.871094 C -5.652344 23.492188 3.121094 13.355469 11.988281 5.070312 C 3.121094 56.144531 -8.578125 73.496094 -14.816406 75.25 Z M -14.816406 75.25 "/></g></g></g><g fill="#acbca2" fill-opacity="1"><g transform="translate(361.976178, 167.832094)"><g><path d="M 32.945312 -21.738281 C 32.070312 -22.320312 30.898438 -22.128906 30.316406 -21.25 C 23.003906 -11.015625 17.058594 -4.582031 11.210938 -0.390625 C 8.285156 1.65625 5.457031 2.046875 3.605469 0.683594 C 2.4375 -0.195312 -1.167969 -4.09375 3.023438 -17.742188 C 12.476562 -25.539062 17.644531 -32.945312 16.277344 -36.847656 C 15.792969 -38.015625 14.621094 -38.796875 13.355469 -38.796875 C 9.457031 -38.699219 3.507812 -31.972656 -0.390625 -19.398438 C -5.167969 -3.898438 -1.265625 1.753906 1.460938 3.703125 C 2.828125 4.777344 4.386719 5.265625 6.140625 5.265625 C 8.382812 5.265625 10.917969 4.386719 13.355469 2.632812 C 19.59375 -1.851562 25.734375 -8.480469 33.335938 -19.105469 C 33.921875 -19.984375 33.726562 -21.152344 32.945312 -21.738281 Z M 12.574219 -34.703125 C 12.183594 -33.140625 10.527344 -30.023438 5.945312 -25.34375 C 8.480469 -30.996094 11.210938 -33.726562 12.574219 -34.703125 Z M 12.574219 -34.703125 "/></g></g></g><g fill="#acbca2" fill-opacity="1"><g transform="translate(390.341489, 167.832094)"><g><path d="M 42.792969 -22.03125 C 41.816406 -22.515625 40.648438 -22.128906 40.257812 -21.152344 C 29.046875 2.4375 18.421875 14.523438 16.082031 14.132812 C 15.886719 14.035156 12.476562 10.722656 23.492188 -23.101562 C 23.785156 -23.980469 24.464844 -26.027344 22.90625 -27.097656 C 21.445312 -28.269531 19.789062 -27.195312 17.058594 -25.34375 C 14.132812 -23.492188 10.136719 -20.859375 7.019531 -21.25 C 16.960938 -38.40625 15.984375 -42.207031 13.746094 -43.667969 C 10.234375 -45.714844 5.167969 -39.769531 2.828125 -36.359375 C -1.949219 -28.949219 -1.851562 -22.226562 3.214844 -18.8125 C 8.382812 -15.207031 15.109375 -19.59375 19.105469 -22.226562 C 19.203125 -22.320312 19.203125 -22.320312 19.300781 -22.417969 C 15.5 -10.429688 13.0625 -0.976562 12.183594 5.554688 C 11.113281 12.769531 11.890625 16.570312 14.621094 17.644531 C 15.109375 17.742188 15.5 17.839844 15.984375 17.839844 C 23.785156 17.839844 37.332031 -6.140625 43.667969 -19.496094 C 44.058594 -20.46875 43.667969 -21.640625 42.792969 -22.03125 Z M 3.410156 -28.753906 C 4.777344 -34.019531 9.359375 -38.894531 11.40625 -40.0625 C 11.210938 -38.503906 10.136719 -34.117188 3.898438 -23.296875 C 3.214844 -24.367188 2.730469 -26.027344 3.410156 -28.753906 Z M 3.410156 -28.753906 "/></g></g></g><g fill="#acbca2" fill-opacity="1"><g transform="translate(429.234142, 167.832094)"><g><path d="M 32.945312 -21.738281 C 32.070312 -22.320312 30.898438 -22.128906 30.316406 -21.25 C 23.003906 -11.015625 17.058594 -4.582031 11.210938 -0.390625 C 8.285156 1.65625 5.457031 2.046875 3.605469 0.683594 C 2.4375 -0.195312 -1.167969 -4.09375 3.023438 -17.742188 C 12.476562 -25.539062 17.644531 -32.945312 16.277344 -36.847656 C 15.792969 -38.015625 14.621094 -38.796875 13.355469 -38.796875 C 9.457031 -38.699219 3.507812 -31.972656 -0.390625 -19.398438 C -5.167969 -3.898438 -1.265625 1.753906 1.460938 3.703125 C 2.828125 4.777344 4.386719 5.265625 6.140625 5.265625 C 8.382812 5.265625 10.917969 4.386719 13.355469 2.632812 C 19.59375 -1.851562 25.734375 -8.480469 33.335938 -19.105469 C 33.921875 -19.984375 33.726562 -21.152344 32.945312 -21.738281 Z M 12.574219 -34.703125 C 12.183594 -33.140625 10.527344 -30.023438 5.945312 -25.34375 C 8.480469 -30.996094 11.210938 -33.726562 12.574219 -34.703125 Z M 12.574219 -34.703125 "/></g></g></g><g fill="#acbca2" fill-opacity="1"><g transform="translate(457.599472, 167.832094)"><g><path d="M 39.183594 -21.738281 C 38.308594 -22.226562 37.136719 -21.933594 36.652344 -20.957031 C 34.3125 -16.960938 28.171875 -6.140625 24.660156 -6.53125 C 23.980469 -6.628906 22.03125 -7.601562 20.082031 -14.425781 C 18.714844 -19.203125 16.863281 -23.6875 13.257812 -23.882812 C 10.625 -24.078125 7.699219 -22.03125 3.214844 -13.648438 C 4.386719 -17.839844 5.652344 -22.03125 6.628906 -25.441406 C 7.019531 -26.707031 7.3125 -27.78125 7.601562 -28.851562 C 7.894531 -29.828125 7.3125 -30.898438 6.335938 -31.191406 C 5.359375 -31.484375 4.289062 -30.898438 3.996094 -29.828125 C 3.703125 -28.851562 3.410156 -27.683594 3.023438 -26.511719 C 0.488281 -17.839844 -3.3125 -4.679688 -4.289062 3.3125 C -4.386719 4.191406 -3.800781 5.070312 -2.925781 5.265625 C -2.730469 5.359375 -2.632812 5.359375 -2.4375 5.359375 C -1.65625 5.359375 -0.976562 4.875 -0.683594 4.191406 C 8.480469 -18.617188 12.183594 -20.175781 13.0625 -20.175781 C 13.257812 -20.175781 14.621094 -19.789062 16.472656 -13.355469 C 18.421875 -6.628906 20.957031 -3.214844 24.273438 -2.828125 C 29.242188 -2.242188 33.726562 -8.382812 39.867188 -19.105469 C 40.453125 -20.082031 40.0625 -21.152344 39.183594 -21.738281 Z M 39.183594 -21.738281 "/></g></g></g><g fill="#acbca2" fill-opacity="1"><g transform="translate(492.398172, 167.832094)"><g><path d="M 32.167969 -22.128906 C 31.289062 -22.613281 30.121094 -22.417969 29.632812 -21.542969 C 23.003906 -11.503906 11.988281 5.265625 4.777344 3.703125 C 3.605469 3.410156 2.632812 2.632812 1.949219 1.363281 C 0 -2.144531 0.292969 -9.164062 2.535156 -15.304688 C 4.972656 -21.835938 7.894531 -23.492188 8.480469 -23.394531 C 8.578125 -23.296875 9.164062 -22.03125 8.382812 -19.007812 C 8.089844 -17.9375 8.675781 -16.960938 9.648438 -16.667969 C 10.722656 -16.472656 11.695312 -17.058594 11.988281 -18.03125 C 13.839844 -25.050781 10.625 -26.609375 9.648438 -27 C 6.042969 -28.074219 1.65625 -23.785156 -0.976562 -16.570312 C -3.214844 -10.527344 -4.191406 -1.949219 -1.265625 3.214844 C -0.0976562 5.457031 1.753906 6.824219 3.996094 7.3125 C 4.582031 7.503906 5.167969 7.503906 5.75 7.503906 C 14.230469 7.503906 23.394531 -5.265625 32.753906 -19.496094 C 33.335938 -20.371094 33.042969 -21.542969 32.167969 -22.128906 Z M 32.167969 -22.128906 "/></g></g></g><g fill="#acbca2" fill-opacity="1"><g transform="translate(521.250883, 167.832094)"><g><path d="M 28.464844 -22.128906 C 27.585938 -22.710938 26.511719 -22.417969 25.929688 -21.542969 C 19.398438 -11.015625 8.480469 -1.070312 5.167969 -2.4375 C 4.777344 -2.632812 1.65625 -4.484375 5.945312 -20.957031 C 6.140625 -22.03125 5.554688 -23.003906 4.582031 -23.296875 C 3.507812 -23.492188 2.535156 -22.90625 2.242188 -21.933594 C -1.265625 -8.1875 -0.78125 -0.878906 3.605469 0.976562 C 4.289062 1.265625 4.972656 1.363281 5.652344 1.363281 C 12.964844 1.363281 24.175781 -11.695312 29.144531 -19.59375 C 29.632812 -20.46875 29.339844 -21.640625 28.464844 -22.128906 Z M 5.457031 -30.023438 C 10.429688 -29.730469 10.332031 -35.96875 6.335938 -34.605469 C 4.289062 -34.019531 1.65625 -30.21875 5.457031 -30.023438 Z M 5.457031 -30.023438 "/></g></g></g><g fill="#acbca2" fill-opacity="1"><g transform="translate(545.912138, 167.832094)"><g><path d="M 40.746094 -21.640625 C 39.867188 -22.03125 38.699219 -21.640625 38.308594 -20.761719 C 30.898438 -5.652344 25.34375 -0.878906 22.710938 -1.363281 C 21.640625 -1.558594 18.128906 -3.605469 17.253906 -20.664062 C 17.253906 -21.445312 16.667969 -22.128906 15.984375 -22.320312 C 15.207031 -22.515625 14.328125 -22.320312 13.9375 -21.640625 C 13.355469 -20.957031 12.769531 -20.175781 12.183594 -19.300781 C 9.746094 -15.984375 6.53125 -11.503906 2.632812 -7.3125 C 2.046875 -6.628906 1.558594 -6.238281 1.265625 -6.042969 C 0.585938 -9.457031 4.191406 -22.515625 9.941406 -26.609375 C 11.601562 -27.78125 13.839844 -28.65625 16.863281 -25.148438 C 17.546875 -24.367188 18.714844 -24.273438 19.496094 -24.953125 C 20.273438 -25.539062 20.371094 -26.804688 19.789062 -27.585938 C 16.082031 -31.875 12.574219 -31.777344 10.234375 -30.996094 C 2.730469 -28.367188 -2.339844 -13.9375 -2.535156 -7.3125 C -2.632812 -4.582031 -1.851562 -2.828125 -0.292969 -2.242188 C 2.144531 -1.265625 4.582031 -3.898438 5.359375 -4.777344 C 8.675781 -8.382812 11.695312 -12.28125 13.839844 -15.304688 C 14.914062 -4.191406 17.546875 1.363281 21.933594 2.339844 C 22.320312 2.339844 22.710938 2.4375 23.101562 2.4375 C 29.730469 2.4375 36.847656 -9.164062 41.621094 -19.105469 C 42.109375 -20.082031 41.71875 -21.152344 40.746094 -21.640625 Z M 40.746094 -21.640625 "/></g></g></g><g fill="#acbca2" fill-opacity="1"><g transform="translate(582.172979, 167.832094)"><g/></g></g><g fill="#acbca2" fill-opacity="1"><g transform="translate(612.097896, 167.832094)"><g><path d="M 41.621094 -81.394531 C 40.941406 -81.976562 40.0625 -82.171875 39.183594 -81.976562 C 34.992188 -80.613281 27.488281 -60.242188 20.273438 -26.707031 C 20.082031 -26.125 19.789062 -25.636719 19.496094 -25.050781 C 19.007812 -28.851562 16.472656 -29.925781 15.597656 -30.21875 C 11.40625 -31.484375 4.777344 -27.683594 0.195312 -17.9375 C -3.3125 -10.625 -3.996094 -1.070312 0.390625 1.460938 C 2.535156 2.730469 6.238281 2.535156 11.601562 -5.265625 C 13.9375 -8.578125 15.984375 -11.792969 17.9375 -14.914062 C 16.863281 -9.359375 15.792969 -3.507812 14.816406 2.632812 C 12.964844 13.550781 11.601562 22.710938 10.820312 29.339844 C 9.261719 42.304688 10.039062 44.058594 11.988281 44.644531 C 12.183594 44.742188 12.476562 44.742188 12.671875 44.742188 C 14.425781 44.742188 15.597656 42.5 16.179688 41.039062 C 16.667969 40.160156 16.277344 38.992188 15.304688 38.601562 C 14.816406 38.308594 14.230469 38.308594 13.746094 38.503906 C 13.9375 34.3125 14.914062 24.757812 18.519531 3.3125 C 20.273438 -7.410156 22.128906 -16.960938 23.882812 -25.34375 C 31.191406 -39.183594 34.898438 -50.882812 37.917969 -60.144531 C 38.308594 -61.3125 38.699219 -62.386719 38.992188 -63.359375 C 44.15625 -78.859375 42.207031 -80.710938 41.621094 -81.394531 Z M 8.480469 -7.410156 C 4.777344 -2.046875 2.730469 -1.558594 2.242188 -1.753906 C 0.78125 -2.632812 0.292969 -9.359375 3.605469 -16.375 C 6.921875 -23.394531 11.40625 -26.707031 13.839844 -26.707031 C 14.132812 -26.707031 14.328125 -26.707031 14.523438 -26.609375 C 16.082031 -26.222656 15.792969 -23.394531 15.695312 -22.613281 C 15.597656 -21.738281 16.082031 -20.859375 16.960938 -20.566406 C 14.523438 -16.375 11.695312 -11.988281 8.480469 -7.410156 Z M 35.480469 -64.53125 C 35.089844 -63.554688 34.703125 -62.480469 34.410156 -61.3125 C 32.65625 -56.050781 30.707031 -50.101562 28.074219 -43.378906 C 32.167969 -59.558594 35.871094 -69.695312 38.210938 -74.765625 C 37.820312 -72.425781 36.945312 -69.109375 35.480469 -64.53125 Z M 35.480469 -64.53125 "/></g></g></g><g fill="#acbca2" fill-opacity="1"><g transform="translate(642.607676, 167.832094)"><g><path d="M 32.945312 -21.738281 C 32.070312 -22.320312 30.898438 -22.128906 30.316406 -21.25 C 23.003906 -11.015625 17.058594 -4.582031 11.210938 -0.390625 C 8.285156 1.65625 5.457031 2.046875 3.605469 0.683594 C 2.4375 -0.195312 -1.167969 -4.09375 3.023438 -17.742188 C 12.476562 -25.539062 17.644531 -32.945312 16.277344 -36.847656 C 15.792969 -38.015625 14.621094 -38.796875 13.355469 -38.796875 C 9.457031 -38.699219 3.507812 -31.972656 -0.390625 -19.398438 C -5.167969 -3.898438 -1.265625 1.753906 1.460938 3.703125 C 2.828125 4.777344 4.386719 5.265625 6.140625 5.265625 C 8.382812 5.265625 10.917969 4.386719 13.355469 2.632812 C 19.59375 -1.851562 25.734375 -8.480469 33.335938 -19.105469 C 33.921875 -19.984375 33.726562 -21.152344 32.945312 -21.738281 Z M 12.574219 -34.703125 C 12.183594 -33.140625 10.527344 -30.023438 5.945312 -25.34375 C 8.480469 -30.996094 11.210938 -33.726562 12.574219 -34.703125 Z M 12.574219 -34.703125 "/></g></g></g><g fill="#acbca2" fill-opacity="1"><g transform="translate(670.973006, 167.832094)"><g/></g></g><g fill="#acbca2" fill-opacity="1"><g transform="translate(700.897923, 167.832094)"><g><path d="M 42.792969 -22.03125 C 41.816406 -22.515625 40.648438 -22.128906 40.257812 -21.152344 C 29.046875 2.4375 18.421875 14.523438 16.082031 14.132812 C 15.886719 14.035156 12.476562 10.722656 23.492188 -23.101562 C 23.785156 -23.980469 24.464844 -26.027344 22.90625 -27.097656 C 21.445312 -28.269531 19.789062 -27.195312 17.058594 -25.34375 C 14.132812 -23.492188 10.136719 -20.859375 7.019531 -21.25 C 16.960938 -38.40625 15.984375 -42.207031 13.746094 -43.667969 C 10.234375 -45.714844 5.167969 -39.769531 2.828125 -36.359375 C -1.949219 -28.949219 -1.851562 -22.226562 3.214844 -18.8125 C 8.382812 -15.207031 15.109375 -19.59375 19.105469 -22.226562 C 19.203125 -22.320312 19.203125 -22.320312 19.300781 -22.417969 C 15.5 -10.429688 13.0625 -0.976562 12.183594 5.554688 C 11.113281 12.769531 11.890625 16.570312 14.621094 17.644531 C 15.109375 17.742188 15.5 17.839844 15.984375 17.839844 C 23.785156 17.839844 37.332031 -6.140625 43.667969 -19.496094 C 44.058594 -20.46875 43.667969 -21.640625 42.792969 -22.03125 Z M 3.410156 -28.753906 C 4.777344 -34.019531 9.359375 -38.894531 11.40625 -40.0625 C 11.210938 -38.503906 10.136719 -34.117188 3.898438 -23.296875 C 3.214844 -24.367188 2.730469 -26.027344 3.410156 -28.753906 Z M 3.410156 -28.753906 "/></g></g></g><g fill="#acbca2" fill-opacity="1"><g transform="translate(739.790576, 167.832094)"><g><path d="M 32.945312 -21.738281 C 32.070312 -22.320312 30.898438 -22.128906 30.316406 -21.25 C 23.003906 -11.015625 17.058594 -4.582031 11.210938 -0.390625 C 8.285156 1.65625 5.457031 2.046875 3.605469 0.683594 C 2.4375 -0.195312 -1.167969 -4.09375 3.023438 -17.742188 C 12.476562 -25.539062 17.644531 -32.945312 16.277344 -36.847656 C 15.792969 -38.015625 14.621094 -38.796875 13.355469 -38.796875 C 9.457031 -38.699219 3.507812 -31.972656 -0.390625 -19.398438 C -5.167969 -3.898438 -1.265625 1.753906 1.460938 3.703125 C 2.828125 4.777344 4.386719 5.265625 6.140625 5.265625 C 8.382812 5.265625 10.917969 4.386719 13.355469 2.632812 C 19.59375 -1.851562 25.734375 -8.480469 33.335938 -19.105469 C 33.921875 -19.984375 33.726562 -21.152344 32.945312 -21.738281 Z M 12.574219 -34.703125 C 12.183594 -33.140625 10.527344 -30.023438 5.945312 -25.34375 C 8.480469 -30.996094 11.210938 -33.726562 12.574219 -34.703125 Z M 12.574219 -34.703125 "/></g></g></g><g fill="#acbca2" fill-opacity="1"><g transform="translate(768.155906, 167.832094)"><g><path d="M 44.644531 -21.542969 C 44.058594 -22.417969 42.890625 -22.613281 42.109375 -22.128906 C 35.285156 -17.742188 26.511719 -11.988281 17.449219 -4.582031 C 18.421875 -11.308594 19.398438 -18.421875 20.371094 -26.027344 C 20.46875 -27 19.886719 -27.78125 19.105469 -28.074219 C 18.226562 -28.367188 17.253906 -27.976562 16.863281 -27.195312 C 15.207031 -24.464844 10.625 -17.449219 6.824219 -12.378906 C 5.265625 -10.429688 4.386719 -9.648438 3.898438 -9.359375 C 2.925781 -12.476562 5.945312 -26.417969 12.085938 -31.875 C 14.523438 -34.117188 16.765625 -34.117188 19.203125 -31.972656 C 19.984375 -31.289062 21.152344 -31.289062 21.835938 -32.070312 C 22.515625 -32.847656 22.417969 -34.019531 21.738281 -34.703125 C 17.839844 -38.210938 14.328125 -37.625 12.085938 -36.457031 C 4.191406 -32.558594 -0.585938 -16.375 0.0976562 -9.84375 C 0.292969 -6.921875 1.65625 -5.847656 2.730469 -5.554688 C 5.359375 -4.875 7.894531 -7.601562 9.746094 -10.136719 C 11.695312 -12.671875 13.746094 -15.597656 15.597656 -18.226562 C 14.816406 -12.085938 13.9375 -6.335938 13.0625 -0.878906 C 2.632812 8.1875 -7.796875 19.59375 -15.695312 34.019531 C -21.640625 44.742188 -23.589844 53.808594 -24.175781 59.460938 C -24.953125 66.867188 -23.882812 73.011719 -21.152344 76.324219 C -19.691406 78.175781 -17.839844 79.152344 -15.792969 79.152344 C -15.207031 79.152344 -14.523438 79.054688 -13.839844 78.859375 C -4.484375 76.226562 7.796875 54.003906 16.472656 1.070312 C 26.609375 -7.601562 36.554688 -14.035156 44.058594 -18.910156 C 44.9375 -19.496094 45.230469 -20.664062 44.644531 -21.542969 Z M -14.816406 75.25 C -16.179688 75.640625 -17.253906 75.25 -18.226562 73.984375 C -21.933594 69.402344 -22.515625 54.097656 -12.476562 35.871094 C -5.652344 23.492188 3.121094 13.355469 11.988281 5.070312 C 3.121094 56.144531 -8.578125 73.496094 -14.816406 75.25 Z M -14.816406 75.25 "/></g></g></g><g fill="#acbca2" fill-opacity="1"><g transform="translate(808.315751, 167.832094)"><g><path d="M 40.746094 -21.640625 C 39.867188 -22.03125 38.699219 -21.640625 38.308594 -20.761719 C 30.898438 -5.652344 25.34375 -0.878906 22.710938 -1.363281 C 21.640625 -1.558594 18.128906 -3.605469 17.253906 -20.664062 C 17.253906 -21.445312 16.667969 -22.128906 15.984375 -22.320312 C 15.207031 -22.515625 14.328125 -22.320312 13.9375 -21.640625 C 13.355469 -20.957031 12.769531 -20.175781 12.183594 -19.300781 C 9.746094 -15.984375 6.53125 -11.503906 2.632812 -7.3125 C 2.046875 -6.628906 1.558594 -6.238281 1.265625 -6.042969 C 0.585938 -9.457031 4.191406 -22.515625 9.941406 -26.609375 C 11.601562 -27.78125 13.839844 -28.65625 16.863281 -25.148438 C 17.546875 -24.367188 18.714844 -24.273438 19.496094 -24.953125 C 20.273438 -25.539062 20.371094 -26.804688 19.789062 -27.585938 C 16.082031 -31.875 12.574219 -31.777344 10.234375 -30.996094 C 2.730469 -28.367188 -2.339844 -13.9375 -2.535156 -7.3125 C -2.632812 -4.582031 -1.851562 -2.828125 -0.292969 -2.242188 C 2.144531 -1.265625 4.582031 -3.898438 5.359375 -4.777344 C 8.675781 -8.382812 11.695312 -12.28125 13.839844 -15.304688 C 14.914062 -4.191406 17.546875 1.363281 21.933594 2.339844 C 22.320312 2.339844 22.710938 2.4375 23.101562 2.4375 C 29.730469 2.4375 36.847656 -9.164062 41.621094 -19.105469 C 42.109375 -20.082031 41.71875 -21.152344 40.746094 -21.640625 Z M 40.746094 -21.640625 "/></g></g></g><g fill="#acbca2" fill-opacity="1"><g transform="translate(844.576593, 167.832094)"><g><path d="M 28.65625 -91.335938 C 27.976562 -92.210938 27 -92.601562 26.027344 -92.503906 C 20.46875 -91.53125 14.523438 -70.769531 12.867188 -64.433594 C 7.992188 -45.8125 1.851562 -19.398438 -3.121094 4.289062 C -5.457031 15.5 -7.3125 24.953125 -8.480469 31.777344 C -10.429688 43.28125 -10.136719 44.742188 -8.285156 45.230469 C -8.089844 45.328125 -7.894531 45.328125 -7.699219 45.328125 C -5.945312 45.328125 -5.070312 42.988281 -4.191406 40.453125 C -3.898438 39.476562 -4.386719 38.40625 -5.359375 38.113281 C -5.457031 38.015625 -5.554688 38.015625 -5.652344 38.015625 C -3.605469 23.980469 4.777344 -16.863281 13.355469 -51.078125 C 13.355469 -51.175781 13.453125 -51.273438 13.550781 -51.371094 C 26.222656 -71.449219 31.191406 -87.4375 28.65625 -91.335938 Z M 16.667969 -64.238281 C 20.371094 -77.980469 23.6875 -84.609375 25.441406 -87.339844 C 25.050781 -83.730469 22.90625 -75.933594 16.667969 -64.238281 Z M 16.667969 -64.238281 "/></g></g></g><g fill="#acbca2" fill-opacity="1"><g transform="translate(859.392816, 167.832094)"><g><path d="M 35.285156 -21.152344 C 34.410156 -21.835938 33.238281 -21.640625 32.65625 -20.859375 C 28.5625 -15.597656 21.835938 -11.210938 16.667969 -12.183594 C 16.765625 -12.867188 16.863281 -13.550781 16.863281 -14.230469 C 17.546875 -25.246094 14.132812 -27.488281 12.085938 -27.878906 C 9.746094 -28.367188 7.3125 -26.609375 6.140625 -23.6875 C 5.652344 -23.882812 5.070312 -23.882812 4.582031 -23.492188 C 0.683594 -21.054688 -2.535156 -14.816406 -0.78125 -8.089844 C 0.390625 -4.09375 3.121094 -1.558594 6.726562 -1.558594 C 10.136719 -1.558594 13.746094 -4.09375 15.597656 -8.578125 C 22.417969 -7.117188 30.609375 -12.183594 35.578125 -18.519531 C 36.261719 -19.398438 36.066406 -20.566406 35.285156 -21.152344 Z M 6.824219 -5.265625 C 6.726562 -5.265625 6.726562 -5.265625 6.726562 -5.265625 C 4.289062 -5.359375 3.214844 -7.699219 2.925781 -9.066406 C 1.949219 -12.378906 2.730469 -16.960938 5.457031 -19.496094 C 5.652344 -16.179688 7.503906 -12.574219 12.183594 -10.039062 C 10.820312 -6.921875 8.480469 -5.265625 6.824219 -5.265625 Z M 13.160156 -14.425781 C 13.0625 -14.230469 13.0625 -14.035156 13.0625 -13.839844 C 9.359375 -16.277344 8.773438 -19.398438 9.457031 -21.835938 C 9.941406 -23.394531 10.917969 -24.175781 11.40625 -24.175781 C 11.890625 -24.078125 13.550781 -22.226562 13.160156 -14.425781 Z M 13.160156 -14.425781 "/></g></g></g><g fill="#acbca2" fill-opacity="1"><g transform="translate(890.584925, 167.832094)"><g><path d="M 43.378906 -22.320312 C 42.597656 -23.003906 41.425781 -22.90625 40.746094 -22.128906 C 33.042969 -13.257812 20.957031 0.878906 19.007812 3.410156 C 18.421875 4.09375 17.839844 4.875 17.253906 5.652344 C 16.472656 3.703125 15.5 1.851562 14.230469 -0.0976562 C 9.550781 -7.3125 5.359375 -14.132812 5.554688 -18.910156 C 5.75 -22.710938 7.699219 -26.027344 10.917969 -27.976562 C 13.550781 -29.535156 16.472656 -29.828125 18.714844 -28.753906 C 19.59375 -28.367188 20.761719 -28.753906 21.152344 -29.730469 C 21.640625 -30.609375 21.25 -31.777344 20.273438 -32.167969 C 16.960938 -33.726562 12.671875 -33.335938 8.96875 -31.191406 C 4.679688 -28.5625 2.144531 -24.175781 1.851562 -19.105469 C 1.558594 -13.160156 5.847656 -6.042969 11.113281 1.949219 C 12.769531 4.484375 13.839844 6.921875 14.523438 9.261719 C 6.921875 19.59375 -1.265625 32.847656 2.925781 36.945312 C 3.605469 37.625 4.484375 37.917969 5.359375 37.917969 C 6.921875 37.917969 8.675781 37.136719 10.527344 35.675781 C 15.792969 31.289062 21.25 21.347656 18.617188 10.039062 C 19.691406 8.675781 20.761719 7.214844 21.933594 5.75 C 23.882812 3.3125 35.96875 -10.820312 43.570312 -19.691406 C 44.253906 -20.46875 44.15625 -21.640625 43.378906 -22.320312 Z M 11.695312 28.65625 C 9.066406 32.558594 6.433594 34.117188 5.554688 34.214844 C 5.167969 32.847656 6.433594 27.195312 15.5 14.328125 C 15.886719 21.347656 12.964844 26.707031 11.695312 28.65625 Z M 11.695312 28.65625 "/></g></g></g><g clip-path="url(#99a732858f)"><path fill="#acbca2" d="M 594.617188 234.820312 C 586.382812 234.820312 578.101562 237.078125 571.242188 241.644531 L 546.703125 257.992188 L 511.195312 257.992188 C 508.257812 257.992188 505.101562 258.84375 502.832031 261.136719 C 500.566406 263.429688 499.6875 266.632812 499.6875 269.492188 L 499.6875 287.457031 C 499.535156 287.539062 499.382812 287.628906 499.238281 287.726562 L 470.472656 307.847656 C 468.960938 308.917969 468.023438 310.753906 468.042969 312.605469 L 468.042969 453.449219 C 468.042969 456.257812 468.871094 459.316406 471.101562 461.625 C 473.332031 463.929688 476.546875 464.949219 479.550781 464.949219 L 709.679688 464.949219 C 712.683594 464.949219 715.898438 463.929688 718.128906 461.625 C 720.363281 459.316406 721.1875 456.257812 721.1875 453.449219 L 721.1875 312.605469 C 721.207031 310.753906 720.273438 308.917969 718.757812 307.847656 C 709.023438 301.078125 699.285156 294.140625 689.542969 287.457031 L 689.542969 269.492188 C 689.542969 266.632812 688.664062 263.429688 686.398438 261.136719 C 684.132812 258.84375 680.972656 257.992188 678.039062 257.992188 L 642.527344 257.992188 L 617.988281 241.644531 C 611.125 237.074219 602.851562 234.816406 594.617188 234.820312 Z M 592.277344 246.675781 C 599.140625 246.238281 606.28125 247.769531 611.515625 251.257812 L 621.582031 257.992188 L 567.648438 257.992188 L 577.714844 251.257812 C 581.785156 248.546875 586.941406 247.015625 592.277344 246.675781 Z M 511.195312 269.492188 C 573.464844 269.492188 618.597656 269.492188 678.039062 269.492188 L 678.039062 342.699219 C 667.574219 348.554688 656.558594 354.910156 645.316406 361.46875 L 543.914062 361.46875 C 537.195312 357.550781 530.578125 353.699219 524.046875 349.972656 L 548.589844 349.972656 C 551.628906 350.015625 554.425781 347.261719 554.425781 344.222656 C 554.425781 341.1875 551.628906 338.433594 548.589844 338.476562 L 511.195312 338.476562 Z M 593.984375 280.898438 C 591.160156 281.210938 588.800781 283.894531 588.863281 286.738281 L 588.863281 286.917969 C 584.710938 287.253906 580.636719 288.285156 576.996094 290.421875 C 572.523438 293.042969 568.542969 298.054688 568.726562 304.164062 C 568.976562 310.722656 573.785156 315.753906 578.703125 317.816406 C 581.996094 319.195312 585.445312 319.921875 588.863281 320.421875 L 588.863281 332.457031 C 587.023438 332.140625 585.160156 331.5625 583.648438 330.839844 C 581.328125 329.734375 580.105469 328.285156 579.871094 327.695312 C 578.765625 324.875 575.191406 323.3125 572.367188 324.417969 C 569.542969 325.523438 567.980469 329.097656 569.085938 331.917969 C 570.902344 336.5 574.691406 339.347656 578.703125 341.261719 C 581.847656 342.757812 585.347656 343.695312 588.863281 344.042969 L 588.863281 344.222656 C 588.820312 347.261719 591.574219 350.054688 594.617188 350.054688 C 597.65625 350.054688 600.410156 347.261719 600.367188 344.222656 L 600.367188 344.132812 C 604.519531 343.777344 608.59375 342.585938 612.234375 340.449219 C 616.707031 337.828125 620.691406 332.90625 620.503906 326.796875 C 620.503906 326.769531 620.503906 326.738281 620.503906 326.707031 C 620.28125 320.105469 615.546875 315.089844 610.617188 312.964844 C 607.320312 311.542969 603.8125 310.871094 600.367188 310.359375 L 600.367188 298.59375 C 602.164062 298.882812 603.984375 299.308594 605.492188 300.03125 C 607.828125 301.152344 609.195312 302.660156 609.449219 303.265625 C 610.46875 306.222656 614.203125 307.898438 617.09375 306.699219 C 619.984375 305.5 621.433594 301.671875 620.054688 298.863281 C 618.175781 294.375 614.429688 291.617188 610.4375 289.699219 C 607.308594 288.199219 603.863281 287.355469 600.367188 287.007812 L 600.367188 286.738281 C 600.4375 283.476562 597.230469 280.539062 593.984375 280.898438 Z M 637.226562 281.078125 C 634.210938 281.21875 631.597656 284.085938 631.742188 287.097656 C 631.882812 290.105469 634.75 292.71875 637.765625 292.574219 L 660.777344 292.574219 C 663.816406 292.617188 666.613281 289.863281 666.613281 286.828125 C 666.613281 283.789062 663.816406 281.035156 660.777344 281.078125 C 652.949219 281.078125 645.011719 281.078125 637.226562 281.078125 Z M 588.863281 298.503906 L 588.863281 308.742188 C 586.597656 308.335938 584.582031 307.796875 583.199219 307.21875 C 580.652344 306.148438 580.328125 305.980469 580.234375 303.804688 C 580.230469 303.761719 580.234375 303.757812 580.234375 303.714844 C 580.214844 302.328125 580.6875 301.511719 582.75 300.300781 C 584.253906 299.417969 586.5 298.820312 588.863281 298.503906 Z M 499.6875 301.46875 L 499.6875 336.320312 C 499.652344 336.304688 499.632812 336.25 499.597656 336.230469 C 498.59375 335.664062 497.417969 335.410156 496.273438 335.511719 C 493.769531 335.664062 491.492188 337.636719 490.988281 340.085938 C 490.480469 342.539062 491.789062 345.25 494.023438 346.378906 C 520.734375 361.167969 543.230469 374.058594 568.726562 389.316406 C 567.632812 389.890625 566.554688 390.484375 565.488281 391.203125 C 544.414062 405.476562 500.46875 435.710938 479.550781 449.410156 L 479.550781 315.570312 Z M 689.542969 301.46875 L 709.679688 315.570312 L 709.679688 449.410156 C 688.738281 435.695312 644.859375 405.5 623.742188 391.203125 C 622.699219 390.5 621.664062 389.882812 620.59375 389.316406 C 645.4375 374.4375 672.820312 358.628906 695.207031 346.378906 C 697.867188 344.921875 698.957031 341.179688 697.5 338.519531 C 696.039062 335.863281 692.292969 334.773438 689.632812 336.230469 C 689.597656 336.246094 689.578125 336.300781 689.542969 336.320312 Z M 600.367188 322.039062 C 602.640625 322.445312 604.660156 322.882812 606.03125 323.476562 C 608.605469 324.585938 608.917969 324.726562 609 327.15625 C 609.042969 328.605469 608.59375 329.332031 606.480469 330.570312 C 604.976562 331.453125 602.730469 332.207031 600.367188 332.546875 Z M 563.511719 372.96875 L 625.71875 372.96875 C 622.019531 375.164062 618.277344 377.359375 614.660156 379.523438 L 614.660156 379.4375 C 609.261719 382.621094 602.121094 384.464844 594.617188 384.464844 C 587.113281 384.46875 579.96875 382.621094 574.570312 379.4375 L 574.570312 379.523438 C 570.953125 377.359375 567.210938 375.164062 563.511719 372.96875 Z M 594.617188 395.964844 C 604.160156 395.964844 611.269531 396.679688 617.269531 400.722656 C 635.917969 413.351562 672.03125 438.132812 695.027344 453.449219 L 494.292969 453.449219 C 517.289062 438.132812 553.371094 413.3125 571.960938 400.722656 C 577.960938 396.679688 585.070312 395.964844 594.617188 395.964844 Z M 594.617188 395.964844 " fill-opacity="1" fill-rule="nonzero"/></g></svg>