<svg xmlns="http://www.w3.org/2000/svg" xmlns:xlink="http://www.w3.org/1999/xlink" width="1174" zoomAndPan="magnify" viewBox="0 0 880.5 579.749983" height="773" preserveAspectRatio="xMidYMid meet" version="1.0"><defs><g/></defs><g fill="#acbca2" fill-opacity="1"><g transform="translate(177.264489, 297.289725)"><g><path d="M 168.980469 -39.476562 C 167.941406 -41.03125 165.863281 -41.378906 164.480469 -40.339844 C 146.820312 -27.875 130.890625 -15.929688 116.347656 -4.675781 C 106.476562 -20.949219 80.160156 -31.683594 45.015625 -45.882812 C 40.515625 -47.613281 36.011719 -49.515625 31.335938 -51.421875 C 17.488281 -56.960938 12.640625 -65.617188 16.449219 -77.566406 C 21.640625 -94.1875 43.457031 -116.175781 73.0625 -135.046875 C 101.285156 -152.878906 128.984375 -162.921875 141.972656 -159.976562 C 146.125 -159.113281 150.800781 -156.6875 149.414062 -146.992188 C 149.070312 -145.261719 150.453125 -143.53125 152.1875 -143.183594 C 154.089844 -143.011719 155.820312 -144.222656 155.996094 -146.125 C 158.074219 -160.84375 149.070312 -165.171875 143.53125 -166.554688 C 112.019531 -173.65625 22.855469 -120.15625 10.042969 -79.640625 C 5.367188 -64.40625 11.945312 -52.113281 28.742188 -45.1875 C 33.414062 -43.285156 38.089844 -41.378906 42.589844 -39.648438 C 80.335938 -24.414062 103.535156 -14.371094 111.152344 -0.691406 C 49.863281 47.265625 18.699219 81.546875 23.894531 96.261719 C 24.757812 98.6875 27.355469 102.324219 34.628906 102.324219 C 35.148438 102.324219 35.839844 102.324219 36.359375 102.324219 C 59.558594 100.589844 110.113281 65.964844 119.808594 16.96875 C 121.023438 11.253906 120.675781 6.058594 119.289062 1.386719 C 134.007812 -9.867188 150.28125 -21.988281 168.289062 -34.800781 C 169.847656 -36.011719 170.191406 -38.089844 168.980469 -39.476562 Z M 113.230469 15.753906 C 103.882812 62.5 54.882812 94.1875 35.839844 95.742188 C 34.109375 95.742188 30.816406 95.742188 30.296875 94.011719 C 28.394531 88.820312 38.089844 74.101562 55.058594 56.960938 C 69.425781 42.246094 88.992188 25.105469 113.402344 5.886719 C 114.097656 9.003906 113.921875 12.121094 113.230469 15.753906 Z M 113.230469 15.753906 "/></g></g></g><g fill="#acbca2" fill-opacity="1"><g transform="translate(339.664307, 297.289725)"><g><path d="M 105.957031 -38.957031 C 104.746094 -40.167969 102.496094 -40.167969 101.285156 -38.957031 C 92.453125 -29.78125 82.933594 -25.625 75.832031 -27.875 C 69.945312 -29.605469 65.792969 -35.664062 63.886719 -45.535156 C 63.539062 -47.09375 62.15625 -48.304688 60.597656 -48.304688 C 58.867188 -48.132812 57.480469 -46.917969 57.308594 -45.363281 C 54.882812 -27.875 44.324219 -1.90625 39.996094 0.867188 C 39.476562 0.347656 38.609375 -1.210938 37.917969 -5.367188 C 36.878906 -10.5625 36.53125 -17.3125 36.53125 -21.46875 C 36.53125 -22.855469 35.492188 -24.238281 34.109375 -24.585938 C 32.550781 -25.105469 31.164062 -24.414062 30.296875 -23.199219 C 19.042969 -5.539062 14.195312 1.386719 10.214844 5.195312 C 8.308594 6.925781 7.097656 7.273438 6.753906 6.925781 C 3.636719 5.019531 1.386719 -13.851562 13.851562 -48.476562 C 14.542969 -50.210938 13.503906 -52.113281 11.773438 -52.804688 C 10.042969 -53.324219 8.136719 -52.460938 7.617188 -50.730469 C -3.636719 -19.738281 -5.539062 6.925781 3.117188 12.640625 C 3.980469 13.160156 5.367188 13.675781 6.925781 13.675781 C 9.003906 13.675781 11.601562 12.8125 14.714844 10.042969 C 18.351562 6.578125 22.507812 1.210938 30.296875 -10.90625 C 30.644531 -8.484375 30.816406 -6.234375 31.335938 -3.980469 C 31.855469 -1.039062 33.761719 7.792969 39.820312 7.617188 C 43.285156 7.617188 48.132812 5.019531 55.402344 -14.023438 C 57.652344 -19.910156 59.730469 -26.488281 61.289062 -32.375 C 64.925781 -25.625 69.945312 -22.679688 73.929688 -21.46875 C 83.453125 -18.527344 95.222656 -23.199219 105.957031 -34.28125 C 107.34375 -35.492188 107.34375 -37.570312 105.957031 -38.957031 Z M 105.957031 -38.957031 "/></g></g></g><g fill="#acbca2" fill-opacity="1"><g transform="translate(438.177617, 297.289725)"><g><path d="M 58.519531 -38.609375 C 56.960938 -39.648438 54.882812 -39.300781 53.84375 -37.742188 C 40.859375 -19.5625 30.296875 -8.136719 19.910156 -0.691406 C 14.714844 2.941406 9.695312 3.636719 6.40625 1.210938 C 4.328125 -0.347656 -2.078125 -7.273438 5.367188 -31.511719 C 22.160156 -45.363281 31.335938 -58.519531 28.914062 -65.445312 C 28.046875 -67.523438 25.96875 -68.90625 23.71875 -68.90625 C 16.792969 -68.734375 6.234375 -56.789062 -0.691406 -34.453125 C -9.175781 -6.925781 -2.25 3.117188 2.597656 6.578125 C 5.019531 8.484375 7.792969 9.347656 10.90625 9.347656 C 14.890625 9.347656 19.390625 7.792969 23.71875 4.675781 C 34.800781 -3.289062 45.707031 -15.0625 59.210938 -33.933594 C 60.25 -35.492188 59.90625 -37.570312 58.519531 -38.609375 Z M 22.335938 -61.636719 C 21.640625 -58.867188 18.699219 -53.324219 10.5625 -45.015625 C 15.0625 -55.058594 19.910156 -59.90625 22.335938 -61.636719 Z M 22.335938 -61.636719 "/></g></g></g><g fill="#acbca2" fill-opacity="1"><g transform="translate(488.559666, 297.289725)"><g><path d="M 58.519531 -38.609375 C 56.960938 -39.648438 54.882812 -39.300781 53.84375 -37.742188 C 40.859375 -19.5625 30.296875 -8.136719 19.910156 -0.691406 C 14.714844 2.941406 9.695312 3.636719 6.40625 1.210938 C 4.328125 -0.347656 -2.078125 -7.273438 5.367188 -31.511719 C 22.160156 -45.363281 31.335938 -58.519531 28.914062 -65.445312 C 28.046875 -67.523438 25.96875 -68.90625 23.71875 -68.90625 C 16.792969 -68.734375 6.234375 -56.789062 -0.691406 -34.453125 C -9.175781 -6.925781 -2.25 3.117188 2.597656 6.578125 C 5.019531 8.484375 7.792969 9.347656 10.90625 9.347656 C 14.890625 9.347656 19.390625 7.792969 23.71875 4.675781 C 34.800781 -3.289062 45.707031 -15.0625 59.210938 -33.933594 C 60.25 -35.492188 59.90625 -37.570312 58.519531 -38.609375 Z M 22.335938 -61.636719 C 21.640625 -58.867188 18.699219 -53.324219 10.5625 -45.015625 C 15.0625 -55.058594 19.910156 -59.90625 22.335938 -61.636719 Z M 22.335938 -61.636719 "/></g></g></g><g fill="#acbca2" fill-opacity="1"><g transform="translate(538.941715, 297.289725)"><g><path d="M 146.125 -102.148438 C 143.875 -105.265625 133.832031 -107.171875 26.316406 -104.746094 C 29.78125 -118.769531 32.894531 -131.410156 35.664062 -141.625 C 36.183594 -143.53125 35.148438 -145.261719 33.414062 -145.78125 C 31.683594 -146.300781 29.78125 -145.261719 29.261719 -143.53125 C 26.316406 -132.621094 23.027344 -119.464844 19.390625 -104.574219 C 9.867188 -104.402344 -0.519531 -104.226562 -11.773438 -103.882812 C -27.183594 -103.535156 -39.300781 -103.1875 -43.976562 -103.1875 C -45.882812 -103.1875 -47.4375 -101.628906 -47.4375 -99.898438 C -47.4375 -97.996094 -45.882812 -96.4375 -43.976562 -96.4375 C -39.128906 -96.609375 -27.007812 -96.78125 -11.601562 -97.300781 C -3.460938 -97.476562 6.578125 -97.648438 17.832031 -97.996094 C 10.386719 -66.484375 1.90625 -28.742188 -5.714844 8.136719 C -11.253906 35.148438 -15.753906 58.519531 -18.699219 75.660156 C -20.257812 84.664062 -21.296875 91.761719 -21.816406 96.609375 C -22.507812 103.1875 -22.855469 106.996094 -19.5625 108.210938 C -19.042969 108.210938 -18.699219 108.382812 -18.179688 108.382812 C -15.234375 108.382812 -13.675781 104.226562 -12.292969 100.417969 C -11.601562 98.6875 -12.464844 96.78125 -14.195312 96.089844 C -14.542969 96.089844 -14.714844 95.917969 -15.0625 95.917969 C -13.332031 82.414062 -8.136719 52.113281 1.90625 4.328125 C 9.347656 -31.855469 17.488281 -68.042969 24.757812 -98.167969 C 72.371094 -99.207031 134.179688 -100.074219 141.277344 -97.648438 C 142.492188 -96.609375 144.046875 -96.609375 145.433594 -97.476562 C 146.820312 -98.515625 147.164062 -100.589844 146.125 -102.148438 Z M 146.125 -102.148438 "/></g></g></g><g fill="#acbca2" fill-opacity="1"><g transform="translate(561.968567, 297.289725)"><g/></g></g><g fill="#acbca2" fill-opacity="1"><g transform="translate(615.120736, 297.289725)"><g><path d="M 29.261719 -97.476562 C 25.105469 -99.207031 20.777344 -96.261719 8.65625 -75.488281 C 7.617188 -73.753906 8.136719 -71.679688 9.867188 -70.640625 C 11.601562 -69.601562 13.851562 -70.292969 14.714844 -71.851562 C 20.429688 -81.546875 23.71875 -86.222656 25.796875 -88.472656 C 25.277344 -78.257812 17.832031 -50.035156 12.8125 -30.472656 C 9.175781 -16.621094 5.886719 -3.636719 3.808594 5.714844 C 3.460938 7.617188 4.675781 9.523438 6.578125 9.867188 C 6.925781 9.867188 7.097656 9.867188 7.445312 9.867188 C 9.003906 9.867188 10.5625 8.828125 10.90625 7.097656 C 12.8125 -2.078125 16.101562 -14.890625 19.738281 -28.566406 C 34.109375 -83.796875 35.664062 -94.878906 29.261719 -97.476562 Z M 29.261719 -97.476562 "/></g></g></g><g fill="#acbca2" fill-opacity="1"><g transform="translate(648.362501, 297.289725)"><g><path d="M 44.84375 -34.800781 C 39.648438 -38.089844 30.816406 -37.222656 23.546875 -27.355469 C 20.601562 -23.199219 18.179688 -18.007812 16.621094 -11.945312 C 11.601562 -21.121094 11.601562 -32.03125 12.640625 -40.339844 C 14.195312 -52.980469 19.390625 -66.484375 25.96875 -75.832031 C 30.816406 -82.585938 35.664062 -86.046875 38.609375 -84.664062 C 40.515625 -83.972656 42.589844 -84.664062 43.285156 -86.394531 C 44.148438 -88.300781 43.457031 -90.375 41.550781 -91.242188 C 35.148438 -94.1875 27.355469 -90.03125 20.082031 -79.988281 C 12.8125 -69.773438 7.273438 -54.882812 5.539062 -41.378906 C 4.15625 -29.433594 4.675781 -12.640625 15.929688 -0.867188 C 15.929688 -0.867188 16.101562 -0.867188 16.101562 -0.867188 C 20.257812 3.636719 24.585938 4.847656 27.875 4.847656 C 28.394531 4.847656 28.914062 4.847656 29.433594 4.675781 C 38.4375 3.636719 43.976562 -5.019531 45.535156 -7.617188 C 53.152344 -21.121094 50.554688 -30.992188 44.84375 -34.800781 Z M 39.300781 -11.253906 C 37.222656 -7.445312 33.070312 -2.769531 28.742188 -2.25 C 26.488281 -2.078125 24.414062 -2.769531 22.335938 -4.5 C 23.894531 -14.023438 27.007812 -19.910156 29.433594 -23.199219 C 33.589844 -28.914062 38.4375 -30.296875 40.859375 -28.742188 C 43.976562 -26.835938 44.496094 -20.082031 39.300781 -11.253906 Z M 39.300781 -11.253906 "/></g></g></g><g fill="#acbca2" fill-opacity="1"><g transform="translate(197.468545, 447.563916)"><g><path d="M 17.375 -15.9375 C 17.375 -17.675781 16.550781 -18.96875 14.90625 -19.8125 C 13.832031 -20.34375 12.539062 -20.609375 11.03125 -20.609375 L 1.375 -20.609375 L 1.375 -19.71875 L 4.125 -19.71875 L 4.125 -0.890625 L 1.375 -0.890625 L 1.375 0 L 11.125 0 C 14.082031 0 16.25 -0.9375 17.625 -2.8125 C 18.332031 -3.800781 18.6875 -4.878906 18.6875 -6.046875 C 18.6875 -7.878906 17.875 -9.296875 16.25 -10.296875 C 15.488281 -10.734375 14.617188 -11.046875 13.640625 -11.234375 C 15.285156 -11.847656 16.414062 -12.890625 17.03125 -14.359375 C 17.257812 -14.910156 17.375 -15.4375 17.375 -15.9375 Z M 10.203125 -19.71875 C 12.554688 -19.71875 13.894531 -18.675781 14.21875 -16.59375 C 14.257812 -16.289062 14.28125 -15.976562 14.28125 -15.65625 C 14.28125 -14.175781 13.695312 -13.054688 12.53125 -12.296875 C 11.84375 -11.859375 11.039062 -11.640625 10.125 -11.640625 L 7.078125 -11.640625 L 7.078125 -19.71875 Z M 10.78125 -10.71875 C 12.863281 -10.71875 14.257812 -9.835938 14.96875 -8.078125 C 15.25 -7.429688 15.390625 -6.726562 15.390625 -5.96875 C 15.390625 -4.207031 14.816406 -2.835938 13.671875 -1.859375 C 12.910156 -1.210938 12.003906 -0.890625 10.953125 -0.890625 L 7.078125 -0.890625 L 7.078125 -10.71875 Z M 10.78125 -10.71875 "/></g></g></g><g fill="#acbca2" fill-opacity="1"><g transform="translate(234.470571, 447.563916)"><g><path d="M 9.78125 0 C 9.78125 -0.5 9.597656 -0.785156 9.234375 -0.859375 C 9.117188 -0.878906 9.003906 -0.890625 8.890625 -0.890625 L 7.078125 -0.890625 L 7.078125 -19.71875 L 9.78125 -19.71875 L 9.78125 -20.609375 L 1.375 -20.609375 L 1.375 -19.71875 L 4.125 -19.71875 L 4.125 -0.890625 L 1.375 -0.890625 L 1.375 0 Z M 9.78125 0 "/></g></g></g><g fill="#acbca2" fill-opacity="1"><g transform="translate(262.407981, 447.563916)"><g><path d="M 9.78125 0 L 9.78125 -0.890625 L 7.078125 -0.890625 L 7.078125 -9.453125 L 10.34375 -9.453125 L 15.828125 0 L 21.015625 0 C 21.015625 -0.5 20.878906 -0.785156 20.609375 -0.859375 C 20.492188 -0.878906 20.359375 -0.890625 20.203125 -0.890625 L 18.890625 -0.890625 L 13.359375 -9.75 C 15.535156 -10.28125 17.023438 -11.414062 17.828125 -13.15625 C 18.117188 -13.84375 18.265625 -14.539062 18.265625 -15.25 C 18.265625 -16.96875 17.523438 -18.34375 16.046875 -19.375 C 14.828125 -20.195312 13.328125 -20.609375 11.546875 -20.609375 L 1.375 -20.609375 L 1.375 -19.71875 L 4.125 -19.71875 L 4.125 -0.890625 L 1.375 -0.890625 L 1.375 0 Z M 10.515625 -19.71875 C 12.484375 -19.71875 13.84375 -18.914062 14.59375 -17.3125 C 14.894531 -16.644531 15.046875 -15.945312 15.046875 -15.21875 C 15.046875 -13.570312 14.472656 -12.289062 13.328125 -11.375 C 12.546875 -10.75 11.640625 -10.4375 10.609375 -10.4375 L 7.078125 -10.4375 L 7.078125 -19.71875 Z M 10.515625 -19.71875 "/></g></g></g><g fill="#acbca2" fill-opacity="1"><g transform="translate(300.199732, 447.563916)"><g><path d="M 14.5 0 C 14.5 -0.5 14.3125 -0.785156 13.9375 -0.859375 C 13.820312 -0.878906 13.710938 -0.890625 13.609375 -0.890625 L 11.265625 -0.890625 L 11.265625 -19.71875 L 13.265625 -19.71875 C 15.117188 -19.71875 16.351562 -18.59375 16.96875 -16.34375 C 16.96875 -16.257812 16.976562 -16.191406 17 -16.140625 L 17.546875 -13.84375 L 18.515625 -13.84375 L 18.34375 -20.609375 L 1.375 -20.609375 L 1.203125 -13.84375 L 2.15625 -13.84375 L 2.71875 -16.140625 C 3.445312 -18.390625 4.691406 -19.582031 6.453125 -19.71875 L 8.3125 -19.71875 L 8.3125 -0.890625 L 5.046875 -0.890625 L 5.046875 0 Z M 14.5 0 "/></g></g></g><g fill="#acbca2" fill-opacity="1"><g transform="translate(336.686717, 447.563916)"><g><path d="M 9.78125 0 C 9.78125 -0.5 9.597656 -0.785156 9.234375 -0.859375 C 9.117188 -0.878906 9.003906 -0.890625 8.890625 -0.890625 L 7.078125 -0.890625 L 7.078125 -10.125 L 17.625 -10.125 L 17.625 -0.890625 L 14.875 -0.890625 L 14.875 0 L 23.28125 0 C 23.28125 -0.5 23.097656 -0.785156 22.734375 -0.859375 C 22.617188 -0.878906 22.503906 -0.890625 22.390625 -0.890625 L 20.578125 -0.890625 L 20.578125 -19.71875 L 23.28125 -19.71875 L 23.28125 -20.609375 L 14.875 -20.609375 L 14.875 -19.71875 L 17.625 -19.71875 L 17.625 -11.125 L 7.078125 -11.125 L 7.078125 -19.71875 L 9.78125 -19.71875 L 9.78125 -20.609375 L 1.375 -20.609375 L 1.375 -19.71875 L 4.125 -19.71875 L 4.125 -0.890625 L 1.375 -0.890625 L 1.375 0 Z M 9.78125 0 "/></g></g></g><g fill="#acbca2" fill-opacity="1"><g transform="translate(378.118037, 447.563916)"><g><path d="M 1.375 -20.609375 L 1.375 -19.71875 L 4.125 -19.71875 L 4.125 -0.890625 L 1.375 -0.890625 L 1.375 0 L 10.859375 0 C 13.941406 0 16.484375 -0.960938 18.484375 -2.890625 C 20.453125 -4.785156 21.4375 -7.253906 21.4375 -10.296875 C 21.4375 -14.242188 19.992188 -17.128906 17.109375 -18.953125 C 15.335938 -20.054688 13.285156 -20.609375 10.953125 -20.609375 Z M 10.859375 -19.71875 C 14.472656 -19.71875 16.726562 -18.066406 17.625 -14.765625 C 17.96875 -13.554688 18.140625 -12.113281 18.140625 -10.4375 C 18.140625 -4.738281 16.191406 -1.59375 12.296875 -1 C 11.859375 -0.925781 11.410156 -0.890625 10.953125 -0.890625 L 7.078125 -0.890625 L 7.078125 -19.71875 Z M 10.859375 -19.71875 "/></g></g></g><g fill="#acbca2" fill-opacity="1"><g transform="translate(418.210267, 447.563916)"><g><path d="M 21.0625 0 C 21.0625 -0.5 20.875 -0.785156 20.5 -0.859375 C 20.382812 -0.878906 20.269531 -0.890625 20.15625 -0.890625 L 19 -0.890625 L 11.125 -20.609375 L 9.859375 -20.609375 L 2.15625 -0.890625 L 0 -0.890625 L 0 0 L 6.109375 0 C 6.109375 -0.5 5.925781 -0.785156 5.5625 -0.859375 C 5.445312 -0.878906 5.332031 -0.890625 5.21875 -0.890625 L 3.53125 -0.890625 L 6.109375 -7.5625 L 13.296875 -7.5625 L 15.875 -0.890625 L 13.640625 -0.890625 L 13.640625 0 Z M 12.921875 -8.546875 L 6.484375 -8.546875 L 9.6875 -16.859375 Z M 12.921875 -8.546875 "/></g></g></g><g fill="#acbca2" fill-opacity="1"><g transform="translate(456.036342, 447.563916)"><g><path d="M 13.84375 0 C 13.84375 -0.5 13.660156 -0.785156 13.296875 -0.859375 C 13.179688 -0.878906 13.066406 -0.890625 12.953125 -0.890625 L 11.09375 -0.890625 L 11.09375 -8.546875 L 16.28125 -18.75 C 16.8125 -19.375 17.429688 -19.695312 18.140625 -19.71875 C 18.640625 -19.71875 18.925781 -19.898438 19 -20.265625 C 19.019531 -20.378906 19.03125 -20.492188 19.03125 -20.609375 L 12.921875 -20.609375 L 12.921875 -19.71875 L 15.65625 -19.71875 L 10.4375 -9.71875 L 4.984375 -19.71875 L 7.59375 -19.71875 L 7.59375 -20.609375 L -0.171875 -20.609375 L -0.171875 -19.71875 L 1.71875 -19.71875 L 8.171875 -8.203125 L 8.171875 -0.890625 L 5.421875 -0.890625 L 5.421875 0 Z M 13.84375 0 "/></g></g></g><g fill="#acbca2" fill-opacity="1"><g transform="translate(491.836613, 447.563916)"><g/></g></g><g fill="#acbca2" fill-opacity="1"><g transform="translate(515.310381, 447.563916)"><g><path d="M 10.8125 -19.71875 C 12.851562 -19.71875 14.171875 -18.800781 14.765625 -16.96875 C 14.953125 -16.375 15.046875 -15.734375 15.046875 -15.046875 C 15.046875 -12.066406 13.71875 -10.425781 11.0625 -10.125 C 10.78125 -10.101562 10.503906 -10.09375 10.234375 -10.09375 L 7.078125 -10.09375 L 7.078125 -19.71875 Z M 10.515625 0 C 10.515625 -0.5 10.328125 -0.785156 9.953125 -0.859375 C 9.835938 -0.878906 9.726562 -0.890625 9.625 -0.890625 L 7.078125 -0.890625 L 7.078125 -9.109375 L 10.09375 -9.109375 C 13.851562 -9.109375 16.335938 -10.171875 17.546875 -12.296875 C 18.023438 -13.097656 18.265625 -14.023438 18.265625 -15.078125 C 18.265625 -17.347656 17.28125 -18.941406 15.3125 -19.859375 C 14.257812 -20.359375 13.003906 -20.609375 11.546875 -20.609375 L 1.375 -20.609375 L 1.375 -19.71875 L 4.125 -19.71875 L 4.125 -0.890625 L 1.375 -0.890625 L 1.375 0 Z M 10.515625 0 "/></g></g></g><g fill="#acbca2" fill-opacity="1"><g transform="translate(551.385338, 447.563916)"><g><path d="M 21.0625 0 C 21.0625 -0.5 20.875 -0.785156 20.5 -0.859375 C 20.382812 -0.878906 20.269531 -0.890625 20.15625 -0.890625 L 19 -0.890625 L 11.125 -20.609375 L 9.859375 -20.609375 L 2.15625 -0.890625 L 0 -0.890625 L 0 0 L 6.109375 0 C 6.109375 -0.5 5.925781 -0.785156 5.5625 -0.859375 C 5.445312 -0.878906 5.332031 -0.890625 5.21875 -0.890625 L 3.53125 -0.890625 L 6.109375 -7.5625 L 13.296875 -7.5625 L 15.875 -0.890625 L 13.640625 -0.890625 L 13.640625 0 Z M 12.921875 -8.546875 L 6.484375 -8.546875 L 9.6875 -16.859375 Z M 12.921875 -8.546875 "/></g></g></g><g fill="#acbca2" fill-opacity="1"><g transform="translate(589.211436, 447.563916)"><g><path d="M 9.78125 0 L 9.78125 -0.890625 L 7.078125 -0.890625 L 7.078125 -9.453125 L 10.34375 -9.453125 L 15.828125 0 L 21.015625 0 C 21.015625 -0.5 20.878906 -0.785156 20.609375 -0.859375 C 20.492188 -0.878906 20.359375 -0.890625 20.203125 -0.890625 L 18.890625 -0.890625 L 13.359375 -9.75 C 15.535156 -10.28125 17.023438 -11.414062 17.828125 -13.15625 C 18.117188 -13.84375 18.265625 -14.539062 18.265625 -15.25 C 18.265625 -16.96875 17.523438 -18.34375 16.046875 -19.375 C 14.828125 -20.195312 13.328125 -20.609375 11.546875 -20.609375 L 1.375 -20.609375 L 1.375 -19.71875 L 4.125 -19.71875 L 4.125 -0.890625 L 1.375 -0.890625 L 1.375 0 Z M 10.515625 -19.71875 C 12.484375 -19.71875 13.84375 -18.914062 14.59375 -17.3125 C 14.894531 -16.644531 15.046875 -15.945312 15.046875 -15.21875 C 15.046875 -13.570312 14.472656 -12.289062 13.328125 -11.375 C 12.546875 -10.75 11.640625 -10.4375 10.609375 -10.4375 L 7.078125 -10.4375 L 7.078125 -19.71875 Z M 10.515625 -19.71875 "/></g></g></g><g fill="#acbca2" fill-opacity="1"><g transform="translate(627.003177, 447.563916)"><g><path d="M 14.5 0 C 14.5 -0.5 14.3125 -0.785156 13.9375 -0.859375 C 13.820312 -0.878906 13.710938 -0.890625 13.609375 -0.890625 L 11.265625 -0.890625 L 11.265625 -19.71875 L 13.265625 -19.71875 C 15.117188 -19.71875 16.351562 -18.59375 16.96875 -16.34375 C 16.96875 -16.257812 16.976562 -16.191406 17 -16.140625 L 17.546875 -13.84375 L 18.515625 -13.84375 L 18.34375 -20.609375 L 1.375 -20.609375 L 1.203125 -13.84375 L 2.15625 -13.84375 L 2.71875 -16.140625 C 3.445312 -18.390625 4.691406 -19.582031 6.453125 -19.71875 L 8.3125 -19.71875 L 8.3125 -0.890625 L 5.046875 -0.890625 L 5.046875 0 Z M 14.5 0 "/></g></g></g><g fill="#acbca2" fill-opacity="1"><g transform="translate(663.490162, 447.563916)"><g><path d="M 13.84375 0 C 13.84375 -0.5 13.660156 -0.785156 13.296875 -0.859375 C 13.179688 -0.878906 13.066406 -0.890625 12.953125 -0.890625 L 11.09375 -0.890625 L 11.09375 -8.546875 L 16.28125 -18.75 C 16.8125 -19.375 17.429688 -19.695312 18.140625 -19.71875 C 18.640625 -19.71875 18.925781 -19.898438 19 -20.265625 C 19.019531 -20.378906 19.03125 -20.492188 19.03125 -20.609375 L 12.921875 -20.609375 L 12.921875 -19.71875 L 15.65625 -19.71875 L 10.4375 -9.71875 L 4.984375 -19.71875 L 7.59375 -19.71875 L 7.59375 -20.609375 L -0.171875 -20.609375 L -0.171875 -19.71875 L 1.71875 -19.71875 L 8.171875 -8.203125 L 8.171875 -0.890625 L 5.421875 -0.890625 L 5.421875 0 Z M 13.84375 0 "/></g></g></g><g fill="#acbca2" fill-opacity="1"><g transform="translate(178.215275, 547.138854)"><g><path d="M 27.6875 -8.9375 C 27.6875 -12.320312 25.863281 -15.039062 22.21875 -17.09375 C 21.5 -17.46875 19.273438 -18.472656 15.546875 -20.109375 C 12.171875 -21.554688 10.046875 -23.039062 9.171875 -24.5625 C 8.710938 -25.394531 8.484375 -26.285156 8.484375 -27.234375 C 8.484375 -29.773438 9.71875 -31.539062 12.1875 -32.53125 C 13.25 -32.945312 14.425781 -33.15625 15.71875 -33.15625 C 18.914062 -33.15625 21.347656 -32.070312 23.015625 -29.90625 C 24.117188 -28.425781 24.648438 -26.625 24.609375 -24.5 L 26.328125 -24.5 L 26.328125 -34.46875 C 25.410156 -34.46875 24.878906 -34.179688 24.734375 -33.609375 C 24.648438 -33.347656 24.609375 -32.988281 24.609375 -32.53125 C 21.910156 -34.007812 18.875 -34.75 15.5 -34.75 C 11.394531 -34.75 8.203125 -33.613281 5.921875 -31.34375 C 4.398438 -29.738281 3.640625 -27.875 3.640625 -25.75 C 3.640625 -22.5625 5.425781 -19.960938 9 -17.953125 C 9.644531 -17.609375 11.8125 -16.640625 15.5 -15.046875 C 18.914062 -13.523438 21.082031 -11.984375 22 -10.421875 C 22.488281 -9.546875 22.734375 -8.597656 22.734375 -7.578125 C 22.734375 -4.921875 21.441406 -3.003906 18.859375 -1.828125 C 17.640625 -1.296875 16.289062 -1.03125 14.8125 -1.03125 C 9 -1.101562 5.769531 -4.65625 5.125 -11.6875 L 3.421875 -11.6875 L 3.421875 0.109375 C 4.328125 0.109375 4.859375 -0.15625 5.015625 -0.6875 C 5.085938 -0.988281 5.125 -1.539062 5.125 -2.34375 C 8.050781 -0.40625 11.375 0.5625 15.09375 0.5625 C 19.46875 0.5625 22.847656 -0.613281 25.234375 -2.96875 C 26.867188 -4.632812 27.6875 -6.625 27.6875 -8.9375 Z M 27.6875 -8.9375 "/></g></g></g><g fill="#acbca2" fill-opacity="1"><g transform="translate(223.67864, 547.138854)"><g><path d="M 20.234375 -34.75 C 15.671875 -34.75 11.753906 -33.25 8.484375 -30.25 C 4.921875 -26.945312 3.140625 -22.640625 3.140625 -17.328125 C 3.140625 -11.171875 5.242188 -6.421875 9.453125 -3.078125 C 12.535156 -0.648438 16.070312 0.5625 20.0625 0.5625 C 24.539062 0.5625 28.394531 -0.953125 31.625 -3.984375 C 35.226562 -7.367188 37.03125 -11.738281 37.03125 -17.09375 C 37.03125 -23.363281 34.847656 -28.128906 30.484375 -31.390625 C 27.515625 -33.628906 24.097656 -34.75 20.234375 -34.75 Z M 20.234375 -1.03125 C 14.722656 -1.03125 11.1875 -3.972656 9.625 -9.859375 C 9.09375 -11.941406 8.828125 -14.351562 8.828125 -17.09375 C 8.828125 -26.132812 11.5625 -31.375 17.03125 -32.8125 C 17.976562 -33.039062 18.988281 -33.15625 20.0625 -33.15625 C 27.539062 -33.082031 31.300781 -27.804688 31.34375 -17.328125 C 31.34375 -9.046875 29.039062 -3.894531 24.4375 -1.875 C 23.144531 -1.3125 21.742188 -1.03125 20.234375 -1.03125 Z M 20.234375 -1.03125 "/></g></g></g><g fill="#acbca2" fill-opacity="1"><g transform="translate(278.767336, 547.138854)"><g><path d="M 18.578125 0 L 18.578125 -1.484375 L 11.734375 -1.484375 L 11.734375 -16.8125 L 23.46875 -16.8125 L 23.46875 -18.453125 L 11.734375 -18.453125 L 11.734375 -32.703125 L 20.859375 -32.703125 C 23.585938 -32.703125 25.539062 -30.859375 26.71875 -27.171875 C 26.789062 -26.941406 26.847656 -26.753906 26.890625 -26.609375 L 27.6875 -23.9375 L 28.828125 -23.9375 L 28.546875 -34.1875 L 2.28125 -34.1875 L 2.28125 -32.703125 L 6.84375 -32.703125 L 6.84375 -1.484375 L 2.28125 -1.484375 L 2.28125 0 Z M 18.578125 0 "/></g></g></g><g fill="#acbca2" fill-opacity="1"><g transform="translate(323.091601, 547.138854)"><g><path d="M 16.234375 0 C 16.234375 -0.832031 15.929688 -1.304688 15.328125 -1.421875 C 15.140625 -1.460938 14.945312 -1.484375 14.75 -1.484375 L 11.734375 -1.484375 L 11.734375 -32.703125 L 16.234375 -32.703125 L 16.234375 -34.1875 L 2.28125 -34.1875 L 2.28125 -32.703125 L 6.84375 -32.703125 L 6.84375 -1.484375 L 2.28125 -1.484375 L 2.28125 0 Z M 16.234375 0 "/></g></g></g><g fill="#acbca2" fill-opacity="1"><g transform="translate(356.537531, 547.138854)"><g><path d="M 34.921875 0 C 34.921875 -0.832031 34.617188 -1.304688 34.015625 -1.421875 C 33.828125 -1.460938 33.632812 -1.484375 33.4375 -1.484375 L 31.515625 -1.484375 L 18.453125 -34.1875 L 16.359375 -34.1875 L 3.59375 -1.484375 L 0 -1.484375 L 0 0 L 10.140625 0 C 10.140625 -0.832031 9.835938 -1.304688 9.234375 -1.421875 C 9.035156 -1.460938 8.84375 -1.484375 8.65625 -1.484375 L 5.875 -1.484375 L 10.140625 -12.53125 L 22.046875 -12.53125 L 26.328125 -1.484375 L 22.625 -1.484375 L 22.625 0 Z M 21.421875 -14.1875 L 10.765625 -14.1875 L 16.0625 -27.96875 Z M 21.421875 -14.1875 "/></g></g></g><g fill="#acbca2" fill-opacity="1"><g transform="translate(406.386394, 547.138854)"><g/></g></g><g fill="#acbca2" fill-opacity="1"><g transform="translate(432.428224, 547.138854)"><g><path d="M 18.578125 0 L 18.578125 -1.484375 L 11.734375 -1.484375 L 11.734375 -16.8125 L 23.46875 -16.8125 L 23.46875 -18.453125 L 11.734375 -18.453125 L 11.734375 -32.703125 L 20.859375 -32.703125 C 23.585938 -32.703125 25.539062 -30.859375 26.71875 -27.171875 C 26.789062 -26.941406 26.847656 -26.753906 26.890625 -26.609375 L 27.6875 -23.9375 L 28.828125 -23.9375 L 28.546875 -34.1875 L 2.28125 -34.1875 L 2.28125 -32.703125 L 6.84375 -32.703125 L 6.84375 -1.484375 L 2.28125 -1.484375 L 2.28125 0 Z M 18.578125 0 "/></g></g></g><g fill="#acbca2" fill-opacity="1"><g transform="translate(476.752488, 547.138854)"><g><path d="M 27.234375 0 L 27.515625 -11.390625 L 26.375 -11.390625 L 25.40625 -7.578125 C 24.5 -4.085938 22.984375 -2.09375 20.859375 -1.59375 C 20.398438 -1.519531 19.960938 -1.484375 19.546875 -1.484375 L 11.734375 -1.484375 L 11.734375 -32.703125 L 16.515625 -32.703125 L 16.515625 -34.1875 L 2.28125 -34.1875 L 2.28125 -32.703125 L 6.84375 -32.703125 L 6.84375 -1.484375 L 2.28125 -1.484375 L 2.28125 0 Z M 27.234375 0 "/></g></g></g><g fill="#acbca2" fill-opacity="1"><g transform="translate(519.766812, 547.138854)"><g><path d="M 20.234375 -34.75 C 15.671875 -34.75 11.753906 -33.25 8.484375 -30.25 C 4.921875 -26.945312 3.140625 -22.640625 3.140625 -17.328125 C 3.140625 -11.171875 5.242188 -6.421875 9.453125 -3.078125 C 12.535156 -0.648438 16.070312 0.5625 20.0625 0.5625 C 24.539062 0.5625 28.394531 -0.953125 31.625 -3.984375 C 35.226562 -7.367188 37.03125 -11.738281 37.03125 -17.09375 C 37.03125 -23.363281 34.847656 -28.128906 30.484375 -31.390625 C 27.515625 -33.628906 24.097656 -34.75 20.234375 -34.75 Z M 20.234375 -1.03125 C 14.722656 -1.03125 11.1875 -3.972656 9.625 -9.859375 C 9.09375 -11.941406 8.828125 -14.351562 8.828125 -17.09375 C 8.828125 -26.132812 11.5625 -31.375 17.03125 -32.8125 C 17.976562 -33.039062 18.988281 -33.15625 20.0625 -33.15625 C 27.539062 -33.082031 31.300781 -27.804688 31.34375 -17.328125 C 31.34375 -9.046875 29.039062 -3.894531 24.4375 -1.875 C 23.144531 -1.3125 21.742188 -1.03125 20.234375 -1.03125 Z M 20.234375 -1.03125 "/></g></g></g><g fill="#acbca2" fill-opacity="1"><g transform="translate(574.855517, 547.138854)"><g><path d="M 16.234375 0 L 16.234375 -1.484375 L 11.734375 -1.484375 L 11.734375 -15.671875 L 17.15625 -15.671875 L 26.265625 0 L 34.875 0 C 34.875 -0.832031 34.644531 -1.304688 34.1875 -1.421875 C 34 -1.460938 33.769531 -1.484375 33.5 -1.484375 L 31.34375 -1.484375 L 22.15625 -16.1875 C 25.769531 -17.050781 28.242188 -18.929688 29.578125 -21.828125 C 30.066406 -22.960938 30.3125 -24.117188 30.3125 -25.296875 C 30.3125 -28.148438 29.078125 -30.429688 26.609375 -32.140625 C 24.597656 -33.503906 22.109375 -34.1875 19.140625 -34.1875 L 2.28125 -34.1875 L 2.28125 -32.703125 L 6.84375 -32.703125 L 6.84375 -1.484375 L 2.28125 -1.484375 L 2.28125 0 Z M 17.4375 -32.703125 C 20.695312 -32.703125 22.957031 -31.375 24.21875 -28.71875 C 24.707031 -27.613281 24.953125 -26.453125 24.953125 -25.234375 C 24.953125 -22.503906 24.003906 -20.378906 22.109375 -18.859375 C 20.816406 -17.835938 19.316406 -17.328125 17.609375 -17.328125 L 11.734375 -17.328125 L 11.734375 -32.703125 Z M 17.4375 -32.703125 "/></g></g></g><g fill="#acbca2" fill-opacity="1"><g transform="translate(624.647442, 547.138854)"><g><path d="M 28.828125 -23.9375 L 28.546875 -34.1875 L 2.28125 -34.1875 L 2.28125 -32.703125 L 6.84375 -32.703125 L 6.84375 -1.484375 L 2.28125 -1.484375 L 2.28125 0 L 28.546875 0 L 28.828125 -10.25 L 27.6875 -10.25 L 26.890625 -7.578125 C 25.941406 -4.347656 24.535156 -2.410156 22.671875 -1.765625 C 22.109375 -1.578125 21.503906 -1.484375 20.859375 -1.484375 L 11.734375 -1.484375 L 11.734375 -16.8125 L 23.46875 -16.8125 L 23.46875 -18.453125 L 11.734375 -18.453125 L 11.734375 -32.703125 L 20.859375 -32.703125 C 23.585938 -32.703125 25.539062 -30.859375 26.71875 -27.171875 C 26.789062 -26.941406 26.847656 -26.753906 26.890625 -26.609375 L 27.6875 -23.9375 Z M 28.828125 -23.9375 "/></g></g></g><g fill="#acbca2" fill-opacity="1"><g transform="translate(671.249908, 547.138854)"><g><path d="M 27.6875 -8.9375 C 27.6875 -12.320312 25.863281 -15.039062 22.21875 -17.09375 C 21.5 -17.46875 19.273438 -18.472656 15.546875 -20.109375 C 12.171875 -21.554688 10.046875 -23.039062 9.171875 -24.5625 C 8.710938 -25.394531 8.484375 -26.285156 8.484375 -27.234375 C 8.484375 -29.773438 9.71875 -31.539062 12.1875 -32.53125 C 13.25 -32.945312 14.425781 -33.15625 15.71875 -33.15625 C 18.914062 -33.15625 21.347656 -32.070312 23.015625 -29.90625 C 24.117188 -28.425781 24.648438 -26.625 24.609375 -24.5 L 26.328125 -24.5 L 26.328125 -34.46875 C 25.410156 -34.46875 24.878906 -34.179688 24.734375 -33.609375 C 24.648438 -33.347656 24.609375 -32.988281 24.609375 -32.53125 C 21.910156 -34.007812 18.875 -34.75 15.5 -34.75 C 11.394531 -34.75 8.203125 -33.613281 5.921875 -31.34375 C 4.398438 -29.738281 3.640625 -27.875 3.640625 -25.75 C 3.640625 -22.5625 5.425781 -19.960938 9 -17.953125 C 9.644531 -17.609375 11.8125 -16.640625 15.5 -15.046875 C 18.914062 -13.523438 21.082031 -11.984375 22 -10.421875 C 22.488281 -9.546875 22.734375 -8.597656 22.734375 -7.578125 C 22.734375 -4.921875 21.441406 -3.003906 18.859375 -1.828125 C 17.640625 -1.296875 16.289062 -1.03125 14.8125 -1.03125 C 9 -1.101562 5.769531 -4.65625 5.125 -11.6875 L 3.421875 -11.6875 L 3.421875 0.109375 C 4.328125 0.109375 4.859375 -0.15625 5.015625 -0.6875 C 5.085938 -0.988281 5.125 -1.539062 5.125 -2.34375 C 8.050781 -0.40625 11.375 0.5625 15.09375 0.5625 C 19.46875 0.5625 22.847656 -0.613281 25.234375 -2.96875 C 26.867188 -4.632812 27.6875 -6.625 27.6875 -8.9375 Z M 27.6875 -8.9375 "/></g></g></g></svg>