<svg xmlns="http://www.w3.org/2000/svg" xmlns:xlink="http://www.w3.org/1999/xlink" width="1174" zoomAndPan="magnify" viewBox="0 0 880.5 668.249984" height="891" preserveAspectRatio="xMidYMid meet" version="1.0"><defs><g/></defs><g fill="#acbca2" fill-opacity="1"><g transform="translate(177.410151, 297.240827)"><g><path d="M 168.886719 -39.453125 C 167.847656 -41.011719 165.773438 -41.355469 164.386719 -40.316406 C 146.738281 -27.859375 130.816406 -15.917969 116.28125 -4.671875 C 106.417969 -20.9375 80.117188 -31.667969 44.992188 -45.855469 C 40.492188 -47.585938 35.992188 -49.488281 31.320312 -51.394531 C 17.476562 -56.929688 12.632812 -65.582031 16.4375 -77.523438 C 21.628906 -94.132812 43.433594 -116.109375 73.023438 -134.972656 C 101.226562 -152.792969 128.914062 -162.832031 141.890625 -159.886719 C 146.046875 -159.023438 150.71875 -156.601562 149.332031 -146.910156 C 148.988281 -145.179688 150.371094 -143.449219 152.101562 -143.105469 C 154.003906 -142.929688 155.734375 -144.140625 155.910156 -146.046875 C 157.984375 -160.753906 148.988281 -165.078125 143.449219 -166.464844 C 111.957031 -173.558594 22.839844 -120.089844 10.035156 -79.597656 C 5.363281 -64.371094 11.941406 -52.085938 28.722656 -45.164062 C 33.398438 -43.261719 38.070312 -41.355469 42.566406 -39.625 C 80.289062 -24.398438 103.476562 -14.363281 111.089844 -0.691406 C 49.835938 47.238281 18.6875 81.5 23.878906 96.210938 C 24.746094 98.632812 27.339844 102.265625 34.609375 102.265625 C 35.128906 102.265625 35.820312 102.265625 36.339844 102.265625 C 59.527344 100.535156 110.054688 65.929688 119.742188 16.957031 C 120.953125 11.246094 120.609375 6.054688 119.222656 1.382812 C 133.933594 -9.863281 150.199219 -21.976562 168.195312 -34.78125 C 169.75 -35.992188 170.097656 -38.070312 168.886719 -39.453125 Z M 113.167969 15.746094 C 103.824219 62.46875 54.855469 94.132812 35.820312 95.691406 C 34.089844 95.691406 30.800781 95.691406 30.28125 93.960938 C 28.378906 88.769531 38.070312 74.0625 55.027344 56.929688 C 69.390625 42.222656 88.941406 25.089844 113.339844 5.882812 C 114.03125 9 113.859375 12.113281 113.167969 15.746094 Z M 113.167969 15.746094 "/></g></g></g><g fill="#acbca2" fill-opacity="1"><g transform="translate(339.72002, 297.240827)"><g><path d="M 105.898438 -38.933594 C 104.6875 -40.144531 102.441406 -40.144531 101.226562 -38.933594 C 92.402344 -29.761719 82.886719 -25.609375 75.792969 -27.859375 C 69.90625 -29.589844 65.753906 -35.644531 63.851562 -45.507812 C 63.503906 -47.066406 62.121094 -48.277344 60.5625 -48.277344 C 58.832031 -48.105469 57.449219 -46.894531 57.277344 -45.335938 C 54.855469 -27.859375 44.296875 -1.902344 39.972656 0.863281 C 39.453125 0.347656 38.585938 -1.210938 37.894531 -5.363281 C 36.859375 -10.554688 36.511719 -17.304688 36.511719 -21.457031 C 36.511719 -22.839844 35.472656 -24.226562 34.089844 -24.570312 C 32.53125 -25.089844 31.148438 -24.398438 30.28125 -23.1875 C 19.035156 -5.539062 14.1875 1.382812 10.210938 5.191406 C 8.304688 6.921875 7.09375 7.269531 6.75 6.921875 C 3.632812 5.019531 1.382812 -13.84375 13.84375 -48.449219 C 14.535156 -50.179688 13.496094 -52.085938 11.765625 -52.777344 C 10.035156 -53.296875 8.132812 -52.429688 7.613281 -50.699219 C -3.632812 -19.726562 -5.539062 6.921875 3.113281 12.632812 C 3.980469 13.152344 5.363281 13.671875 6.921875 13.671875 C 9 13.671875 11.59375 12.804688 14.707031 10.035156 C 18.34375 6.574219 22.496094 1.210938 30.28125 -10.902344 C 30.628906 -8.480469 30.800781 -6.230469 31.320312 -3.980469 C 31.839844 -1.039062 33.742188 7.785156 39.800781 7.613281 C 43.261719 7.613281 48.105469 5.019531 55.371094 -14.015625 C 57.621094 -19.898438 59.699219 -26.476562 61.257812 -32.359375 C 64.890625 -25.609375 69.90625 -22.667969 73.886719 -21.457031 C 83.40625 -18.515625 95.171875 -23.1875 105.898438 -34.261719 C 107.285156 -35.472656 107.285156 -37.550781 105.898438 -38.933594 Z M 105.898438 -38.933594 "/></g></g></g><g fill="#acbca2" fill-opacity="1"><g transform="translate(438.178764, 297.240827)"><g><path d="M 58.488281 -38.585938 C 56.929688 -39.625 54.855469 -39.28125 53.816406 -37.722656 C 40.835938 -19.554688 30.28125 -8.132812 19.898438 -0.691406 C 14.707031 2.941406 9.691406 3.632812 6.402344 1.210938 C 4.324219 -0.347656 -2.078125 -7.269531 5.363281 -31.492188 C 22.148438 -45.335938 31.320312 -58.488281 28.898438 -65.410156 C 28.03125 -67.484375 25.957031 -68.871094 23.707031 -68.871094 C 16.785156 -68.695312 6.230469 -56.757812 -0.691406 -34.433594 C -9.171875 -6.921875 -2.25 3.113281 2.59375 6.574219 C 5.019531 8.480469 7.785156 9.34375 10.902344 9.34375 C 14.882812 9.34375 19.378906 7.785156 23.707031 4.671875 C 34.78125 -3.289062 45.683594 -15.054688 59.179688 -33.914062 C 60.21875 -35.472656 59.871094 -37.550781 58.488281 -38.585938 Z M 22.320312 -61.601562 C 21.628906 -58.832031 18.6875 -53.296875 10.554688 -44.992188 C 15.054688 -55.027344 19.898438 -59.871094 22.320312 -61.601562 Z M 22.320312 -61.601562 "/></g></g></g><g fill="#acbca2" fill-opacity="1"><g transform="translate(488.532908, 297.240827)"><g><path d="M 58.488281 -38.585938 C 56.929688 -39.625 54.855469 -39.28125 53.816406 -37.722656 C 40.835938 -19.554688 30.28125 -8.132812 19.898438 -0.691406 C 14.707031 2.941406 9.691406 3.632812 6.402344 1.210938 C 4.324219 -0.347656 -2.078125 -7.269531 5.363281 -31.492188 C 22.148438 -45.335938 31.320312 -58.488281 28.898438 -65.410156 C 28.03125 -67.484375 25.957031 -68.871094 23.707031 -68.871094 C 16.785156 -68.695312 6.230469 -56.757812 -0.691406 -34.433594 C -9.171875 -6.921875 -2.25 3.113281 2.59375 6.574219 C 5.019531 8.480469 7.785156 9.34375 10.902344 9.34375 C 14.882812 9.34375 19.378906 7.785156 23.707031 4.671875 C 34.78125 -3.289062 45.683594 -15.054688 59.179688 -33.914062 C 60.21875 -35.472656 59.871094 -37.550781 58.488281 -38.585938 Z M 22.320312 -61.601562 C 21.628906 -58.832031 18.6875 -53.296875 10.554688 -44.992188 C 15.054688 -55.027344 19.898438 -59.871094 22.320312 -61.601562 Z M 22.320312 -61.601562 "/></g></g></g><g fill="#acbca2" fill-opacity="1"><g transform="translate(538.887051, 297.240827)"><g><path d="M 146.046875 -102.09375 C 143.796875 -105.207031 133.757812 -107.113281 26.300781 -104.6875 C 29.761719 -118.707031 32.878906 -131.335938 35.644531 -141.546875 C 36.164062 -143.449219 35.128906 -145.179688 33.398438 -145.699219 C 31.667969 -146.21875 29.761719 -145.179688 29.242188 -143.449219 C 26.300781 -132.546875 23.015625 -119.398438 19.378906 -104.515625 C 9.863281 -104.34375 -0.519531 -104.167969 -11.765625 -103.824219 C -27.167969 -103.476562 -39.28125 -103.132812 -43.953125 -103.132812 C -45.855469 -103.132812 -47.414062 -101.574219 -47.414062 -99.84375 C -47.414062 -97.941406 -45.855469 -96.382812 -43.953125 -96.382812 C -39.105469 -96.554688 -26.996094 -96.730469 -11.59375 -97.25 C -3.460938 -97.421875 6.574219 -97.59375 17.824219 -97.941406 C 10.382812 -66.445312 1.902344 -28.722656 -5.710938 8.132812 C -11.246094 35.128906 -15.746094 58.488281 -18.6875 75.617188 C -20.246094 84.617188 -21.285156 91.710938 -21.804688 96.554688 C -22.496094 103.132812 -22.839844 106.9375 -19.554688 108.148438 C -19.035156 108.148438 -18.6875 108.324219 -18.167969 108.324219 C -15.226562 108.324219 -13.671875 104.167969 -12.285156 100.363281 C -11.59375 98.632812 -12.457031 96.730469 -14.1875 96.035156 C -14.535156 96.035156 -14.707031 95.863281 -15.054688 95.863281 C -13.324219 82.367188 -8.132812 52.085938 1.902344 4.324219 C 9.34375 -31.839844 17.476562 -68.003906 24.746094 -98.113281 C 72.332031 -99.152344 134.105469 -100.015625 141.199219 -97.59375 C 142.410156 -96.554688 143.96875 -96.554688 145.351562 -97.421875 C 146.738281 -98.460938 147.082031 -100.535156 146.046875 -102.09375 Z M 146.046875 -102.09375 "/></g></g></g><g fill="#acbca2" fill-opacity="1"><g transform="translate(561.901149, 297.240827)"><g/></g></g><g fill="#acbca2" fill-opacity="1"><g transform="translate(615.023879, 297.240827)"><g><path d="M 29.242188 -97.421875 C 25.089844 -99.152344 20.765625 -96.210938 8.652344 -75.445312 C 7.613281 -73.714844 8.132812 -71.636719 9.863281 -70.601562 C 11.59375 -69.5625 13.84375 -70.253906 14.707031 -71.8125 C 20.417969 -81.5 23.707031 -86.171875 25.78125 -88.421875 C 25.265625 -78.214844 17.824219 -50.007812 12.804688 -30.453125 C 9.171875 -16.613281 5.882812 -3.632812 3.808594 5.710938 C 3.460938 7.613281 4.671875 9.515625 6.574219 9.863281 C 6.921875 9.863281 7.09375 9.863281 7.441406 9.863281 C 9 9.863281 10.554688 8.824219 10.902344 7.09375 C 12.804688 -2.078125 16.09375 -14.882812 19.726562 -28.550781 C 34.089844 -83.75 35.644531 -94.824219 29.242188 -97.421875 Z M 29.242188 -97.421875 "/></g></g></g><g fill="#acbca2" fill-opacity="1"><g transform="translate(648.247233, 297.240827)"><g><path d="M 44.816406 -34.78125 C 39.625 -38.070312 30.800781 -37.203125 23.535156 -27.339844 C 20.589844 -23.1875 18.167969 -17.996094 16.613281 -11.941406 C 11.59375 -21.109375 11.59375 -32.011719 12.632812 -40.316406 C 14.1875 -52.949219 19.378906 -66.445312 25.957031 -75.792969 C 30.800781 -82.539062 35.644531 -86 38.585938 -84.617188 C 40.492188 -83.925781 42.566406 -84.617188 43.261719 -86.347656 C 44.125 -88.25 43.433594 -90.328125 41.53125 -91.191406 C 35.128906 -94.132812 27.339844 -89.980469 20.074219 -79.945312 C 12.804688 -69.734375 7.269531 -54.855469 5.539062 -41.355469 C 4.152344 -29.417969 4.671875 -12.632812 15.917969 -0.863281 C 15.917969 -0.863281 16.09375 -0.863281 16.09375 -0.863281 C 20.246094 3.632812 24.570312 4.84375 27.859375 4.84375 C 28.378906 4.84375 28.898438 4.84375 29.417969 4.671875 C 38.414062 3.632812 43.953125 -5.019531 45.507812 -7.613281 C 53.125 -21.109375 50.527344 -30.972656 44.816406 -34.78125 Z M 39.28125 -11.246094 C 37.203125 -7.441406 33.050781 -2.769531 28.722656 -2.25 C 26.476562 -2.078125 24.398438 -2.769531 22.320312 -4.5 C 23.878906 -14.015625 26.996094 -19.898438 29.417969 -23.1875 C 33.570312 -28.898438 38.414062 -30.28125 40.835938 -28.722656 C 43.953125 -26.820312 44.472656 -20.074219 39.28125 -11.246094 Z M 39.28125 -11.246094 "/></g></g></g><g fill="#acbca2" fill-opacity="1"><g transform="translate(197.603002, 447.431787)"><g><path d="M 17.375 -15.9375 C 17.375 -17.675781 16.550781 -18.96875 14.90625 -19.8125 C 13.820312 -20.332031 12.523438 -20.59375 11.015625 -20.59375 L 1.375 -20.59375 L 1.375 -19.703125 L 4.125 -19.703125 L 4.125 -0.890625 L 1.375 -0.890625 L 1.375 0 L 11.125 0 C 14.070312 0 16.234375 -0.9375 17.609375 -2.8125 C 18.316406 -3.800781 18.671875 -4.878906 18.671875 -6.046875 C 18.671875 -7.878906 17.859375 -9.296875 16.234375 -10.296875 C 15.484375 -10.734375 14.613281 -11.046875 13.625 -11.234375 C 15.28125 -11.847656 16.414062 -12.882812 17.03125 -14.34375 C 17.257812 -14.894531 17.375 -15.425781 17.375 -15.9375 Z M 10.203125 -19.703125 C 12.554688 -19.703125 13.894531 -18.660156 14.21875 -16.578125 C 14.257812 -16.285156 14.28125 -15.976562 14.28125 -15.65625 C 14.28125 -14.164062 13.695312 -13.046875 12.53125 -12.296875 C 11.84375 -11.859375 11.039062 -11.640625 10.125 -11.640625 L 7.078125 -11.640625 L 7.078125 -19.703125 Z M 10.78125 -10.71875 C 12.863281 -10.71875 14.257812 -9.832031 14.96875 -8.0625 C 15.238281 -7.425781 15.375 -6.726562 15.375 -5.96875 C 15.375 -4.207031 14.804688 -2.835938 13.671875 -1.859375 C 12.910156 -1.210938 12.003906 -0.890625 10.953125 -0.890625 L 7.078125 -0.890625 L 7.078125 -10.71875 Z M 10.78125 -10.71875 "/></g></g></g><g fill="#acbca2" fill-opacity="1"><g transform="translate(234.584533, 447.431787)"><g><path d="M 9.78125 0 C 9.78125 -0.5 9.597656 -0.785156 9.234375 -0.859375 C 9.117188 -0.878906 9.003906 -0.890625 8.890625 -0.890625 L 7.078125 -0.890625 L 7.078125 -19.703125 L 9.78125 -19.703125 L 9.78125 -20.59375 L 1.375 -20.59375 L 1.375 -19.703125 L 4.125 -19.703125 L 4.125 -0.890625 L 1.375 -0.890625 L 1.375 0 Z M 9.78125 0 "/></g></g></g><g fill="#acbca2" fill-opacity="1"><g transform="translate(262.506469, 447.431787)"><g><path d="M 9.78125 0 L 9.78125 -0.890625 L 7.078125 -0.890625 L 7.078125 -9.4375 L 10.328125 -9.4375 L 15.828125 0 L 21.015625 0 C 21.015625 -0.5 20.875 -0.785156 20.59375 -0.859375 C 20.476562 -0.878906 20.34375 -0.890625 20.1875 -0.890625 L 18.875 -0.890625 L 13.359375 -9.75 C 15.523438 -10.28125 17.007812 -11.414062 17.8125 -13.15625 C 18.113281 -13.832031 18.265625 -14.53125 18.265625 -15.25 C 18.265625 -16.957031 17.519531 -18.328125 16.03125 -19.359375 C 14.820312 -20.179688 13.320312 -20.59375 11.53125 -20.59375 L 1.375 -20.59375 L 1.375 -19.703125 L 4.125 -19.703125 L 4.125 -0.890625 L 1.375 -0.890625 L 1.375 0 Z M 10.5 -19.703125 C 12.46875 -19.703125 13.832031 -18.898438 14.59375 -17.296875 C 14.882812 -16.640625 15.03125 -15.941406 15.03125 -15.203125 C 15.03125 -13.554688 14.460938 -12.273438 13.328125 -11.359375 C 12.546875 -10.742188 11.640625 -10.4375 10.609375 -10.4375 L 7.078125 -10.4375 L 7.078125 -19.703125 Z M 10.5 -19.703125 "/></g></g></g><g fill="#acbca2" fill-opacity="1"><g transform="translate(300.277289, 447.431787)"><g><path d="M 14.484375 0 C 14.484375 -0.5 14.300781 -0.785156 13.9375 -0.859375 C 13.820312 -0.878906 13.707031 -0.890625 13.59375 -0.890625 L 11.265625 -0.890625 L 11.265625 -19.703125 L 13.25 -19.703125 C 15.101562 -19.703125 16.335938 -18.582031 16.953125 -16.34375 C 16.953125 -16.25 16.96875 -16.179688 17 -16.140625 L 17.546875 -13.828125 L 18.5 -13.828125 L 18.328125 -20.59375 L 1.375 -20.59375 L 1.203125 -13.828125 L 2.15625 -13.828125 L 2.71875 -16.140625 C 3.445312 -18.378906 4.691406 -19.566406 6.453125 -19.703125 L 8.3125 -19.703125 L 8.3125 -0.890625 L 5.046875 -0.890625 L 5.046875 0 Z M 14.484375 0 "/></g></g></g><g fill="#acbca2" fill-opacity="1"><g transform="translate(336.744064, 447.431787)"><g><path d="M 9.78125 0 C 9.78125 -0.5 9.597656 -0.785156 9.234375 -0.859375 C 9.117188 -0.878906 9.003906 -0.890625 8.890625 -0.890625 L 7.078125 -0.890625 L 7.078125 -10.125 L 17.609375 -10.125 L 17.609375 -0.890625 L 14.859375 -0.890625 L 14.859375 0 L 23.28125 0 C 23.28125 -0.5 23.097656 -0.785156 22.734375 -0.859375 C 22.617188 -0.878906 22.503906 -0.890625 22.390625 -0.890625 L 20.5625 -0.890625 L 20.5625 -19.703125 L 23.28125 -19.703125 L 23.28125 -20.59375 L 14.859375 -20.59375 L 14.859375 -19.703125 L 17.609375 -19.703125 L 17.609375 -11.125 L 7.078125 -11.125 L 7.078125 -19.703125 L 9.78125 -19.703125 L 9.78125 -20.59375 L 1.375 -20.59375 L 1.375 -19.703125 L 4.125 -19.703125 L 4.125 -0.890625 L 1.375 -0.890625 L 1.375 0 Z M 9.78125 0 "/></g></g></g><g fill="#acbca2" fill-opacity="1"><g transform="translate(378.152436, 447.431787)"><g><path d="M 1.375 -20.59375 L 1.375 -19.703125 L 4.125 -19.703125 L 4.125 -0.890625 L 1.375 -0.890625 L 1.375 0 L 10.84375 0 C 13.9375 0 16.476562 -0.960938 18.46875 -2.890625 C 20.4375 -4.785156 21.421875 -7.253906 21.421875 -10.296875 C 21.421875 -14.234375 19.976562 -17.117188 17.09375 -18.953125 C 15.332031 -20.046875 13.285156 -20.59375 10.953125 -20.59375 Z M 10.84375 -19.703125 C 14.46875 -19.703125 16.722656 -18.054688 17.609375 -14.765625 C 17.953125 -13.546875 18.125 -12.101562 18.125 -10.4375 C 18.125 -4.738281 16.179688 -1.59375 12.296875 -1 C 11.859375 -0.925781 11.410156 -0.890625 10.953125 -0.890625 L 7.078125 -0.890625 L 7.078125 -19.703125 Z M 10.84375 -19.703125 "/></g></g></g><g fill="#acbca2" fill-opacity="1"><g transform="translate(418.22246, 447.431787)"><g><path d="M 21.046875 0 C 21.046875 -0.5 20.863281 -0.785156 20.5 -0.859375 C 20.382812 -0.878906 20.269531 -0.890625 20.15625 -0.890625 L 18.984375 -0.890625 L 11.125 -20.59375 L 9.859375 -20.59375 L 2.15625 -0.890625 L 0 -0.890625 L 0 0 L 6.109375 0 C 6.109375 -0.5 5.925781 -0.785156 5.5625 -0.859375 C 5.445312 -0.878906 5.332031 -0.890625 5.21875 -0.890625 L 3.53125 -0.890625 L 6.109375 -7.546875 L 13.28125 -7.546875 L 15.859375 -0.890625 L 13.625 -0.890625 L 13.625 0 Z M 12.90625 -8.546875 L 6.484375 -8.546875 L 9.6875 -16.859375 Z M 12.90625 -8.546875 "/></g></g></g><g fill="#acbca2" fill-opacity="1"><g transform="translate(456.027584, 447.431787)"><g><path d="M 13.828125 0 C 13.828125 -0.5 13.644531 -0.785156 13.28125 -0.859375 C 13.164062 -0.878906 13.050781 -0.890625 12.9375 -0.890625 L 11.09375 -0.890625 L 11.09375 -8.546875 L 16.28125 -18.75 C 16.800781 -19.363281 17.414062 -19.679688 18.125 -19.703125 C 18.625 -19.703125 18.910156 -19.882812 18.984375 -20.25 C 19.003906 -20.363281 19.015625 -20.476562 19.015625 -20.59375 L 12.90625 -20.59375 L 12.90625 -19.703125 L 15.65625 -19.703125 L 10.4375 -9.71875 L 4.984375 -19.703125 L 7.59375 -19.703125 L 7.59375 -20.59375 L -0.171875 -20.59375 L -0.171875 -19.703125 L 1.71875 -19.703125 L 8.171875 -8.203125 L 8.171875 -0.890625 L 5.421875 -0.890625 L 5.421875 0 Z M 13.828125 0 "/></g></g></g><g fill="#acbca2" fill-opacity="1"><g transform="translate(491.808026, 447.431787)"><g/></g></g><g fill="#acbca2" fill-opacity="1"><g transform="translate(515.268793, 447.431787)"><g><path d="M 10.8125 -19.703125 C 12.851562 -19.703125 14.171875 -18.785156 14.765625 -16.953125 C 14.941406 -16.359375 15.03125 -15.71875 15.03125 -15.03125 C 15.03125 -12.0625 13.707031 -10.425781 11.0625 -10.125 C 10.78125 -10.101562 10.503906 -10.09375 10.234375 -10.09375 L 7.078125 -10.09375 L 7.078125 -19.703125 Z M 10.5 0 C 10.5 -0.5 10.316406 -0.785156 9.953125 -0.859375 C 9.835938 -0.878906 9.722656 -0.890625 9.609375 -0.890625 L 7.078125 -0.890625 L 7.078125 -9.09375 L 10.09375 -9.09375 C 13.84375 -9.09375 16.328125 -10.160156 17.546875 -12.296875 C 18.023438 -13.097656 18.265625 -14.023438 18.265625 -15.078125 C 18.265625 -17.335938 17.28125 -18.925781 15.3125 -19.84375 C 14.257812 -20.34375 13 -20.59375 11.53125 -20.59375 L 1.375 -20.59375 L 1.375 -19.703125 L 4.125 -19.703125 L 4.125 -0.890625 L 1.375 -0.890625 L 1.375 0 Z M 10.5 0 "/></g></g></g><g fill="#acbca2" fill-opacity="1"><g transform="translate(551.323768, 447.431787)"><g><path d="M 21.046875 0 C 21.046875 -0.5 20.863281 -0.785156 20.5 -0.859375 C 20.382812 -0.878906 20.269531 -0.890625 20.15625 -0.890625 L 18.984375 -0.890625 L 11.125 -20.59375 L 9.859375 -20.59375 L 2.15625 -0.890625 L 0 -0.890625 L 0 0 L 6.109375 0 C 6.109375 -0.5 5.925781 -0.785156 5.5625 -0.859375 C 5.445312 -0.878906 5.332031 -0.890625 5.21875 -0.890625 L 3.53125 -0.890625 L 6.109375 -7.546875 L 13.28125 -7.546875 L 15.859375 -0.890625 L 13.625 -0.890625 L 13.625 0 Z M 12.90625 -8.546875 L 6.484375 -8.546875 L 9.6875 -16.859375 Z M 12.90625 -8.546875 "/></g></g></g><g fill="#acbca2" fill-opacity="1"><g transform="translate(589.128916, 447.431787)"><g><path d="M 9.78125 0 L 9.78125 -0.890625 L 7.078125 -0.890625 L 7.078125 -9.4375 L 10.328125 -9.4375 L 15.828125 0 L 21.015625 0 C 21.015625 -0.5 20.875 -0.785156 20.59375 -0.859375 C 20.476562 -0.878906 20.34375 -0.890625 20.1875 -0.890625 L 18.875 -0.890625 L 13.359375 -9.75 C 15.523438 -10.28125 17.007812 -11.414062 17.8125 -13.15625 C 18.113281 -13.832031 18.265625 -14.53125 18.265625 -15.25 C 18.265625 -16.957031 17.519531 -18.328125 16.03125 -19.359375 C 14.820312 -20.179688 13.320312 -20.59375 11.53125 -20.59375 L 1.375 -20.59375 L 1.375 -19.703125 L 4.125 -19.703125 L 4.125 -0.890625 L 1.375 -0.890625 L 1.375 0 Z M 10.5 -19.703125 C 12.46875 -19.703125 13.832031 -18.898438 14.59375 -17.296875 C 14.882812 -16.640625 15.03125 -15.941406 15.03125 -15.203125 C 15.03125 -13.554688 14.460938 -12.273438 13.328125 -11.359375 C 12.546875 -10.742188 11.640625 -10.4375 10.609375 -10.4375 L 7.078125 -10.4375 L 7.078125 -19.703125 Z M 10.5 -19.703125 "/></g></g></g><g fill="#acbca2" fill-opacity="1"><g transform="translate(626.899724, 447.431787)"><g><path d="M 14.484375 0 C 14.484375 -0.5 14.300781 -0.785156 13.9375 -0.859375 C 13.820312 -0.878906 13.707031 -0.890625 13.59375 -0.890625 L 11.265625 -0.890625 L 11.265625 -19.703125 L 13.25 -19.703125 C 15.101562 -19.703125 16.335938 -18.582031 16.953125 -16.34375 C 16.953125 -16.25 16.96875 -16.179688 17 -16.140625 L 17.546875 -13.828125 L 18.5 -13.828125 L 18.328125 -20.59375 L 1.375 -20.59375 L 1.203125 -13.828125 L 2.15625 -13.828125 L 2.71875 -16.140625 C 3.445312 -18.378906 4.691406 -19.566406 6.453125 -19.703125 L 8.3125 -19.703125 L 8.3125 -0.890625 L 5.046875 -0.890625 L 5.046875 0 Z M 14.484375 0 "/></g></g></g><g fill="#acbca2" fill-opacity="1"><g transform="translate(663.366499, 447.431787)"><g><path d="M 13.828125 0 C 13.828125 -0.5 13.644531 -0.785156 13.28125 -0.859375 C 13.164062 -0.878906 13.050781 -0.890625 12.9375 -0.890625 L 11.09375 -0.890625 L 11.09375 -8.546875 L 16.28125 -18.75 C 16.800781 -19.363281 17.414062 -19.679688 18.125 -19.703125 C 18.625 -19.703125 18.910156 -19.882812 18.984375 -20.25 C 19.003906 -20.363281 19.015625 -20.476562 19.015625 -20.59375 L 12.90625 -20.59375 L 12.90625 -19.703125 L 15.65625 -19.703125 L 10.4375 -9.71875 L 4.984375 -19.703125 L 7.59375 -19.703125 L 7.59375 -20.59375 L -0.171875 -20.59375 L -0.171875 -19.703125 L 1.71875 -19.703125 L 8.171875 -8.203125 L 8.171875 -0.890625 L 5.421875 -0.890625 L 5.421875 0 Z M 13.828125 0 "/></g></g></g><g fill="#ffffff" fill-opacity="1"><g transform="translate(410.176382, 536.798561)"><g><path d="M 1.375 -20.59375 L 1.375 -19.703125 L 4.125 -19.703125 L 4.125 -0.890625 L 1.375 -0.890625 L 1.375 0 L 10.84375 0 C 13.9375 0 16.476562 -0.960938 18.46875 -2.890625 C 20.4375 -4.785156 21.421875 -7.253906 21.421875 -10.296875 C 21.421875 -14.234375 19.976562 -17.117188 17.09375 -18.953125 C 15.332031 -20.046875 13.285156 -20.59375 10.953125 -20.59375 Z M 10.84375 -19.703125 C 14.46875 -19.703125 16.722656 -18.054688 17.609375 -14.765625 C 17.953125 -13.546875 18.125 -12.101562 18.125 -10.4375 C 18.125 -4.738281 16.179688 -1.59375 12.296875 -1 C 11.859375 -0.925781 11.410156 -0.890625 10.953125 -0.890625 L 7.078125 -0.890625 L 7.078125 -19.703125 Z M 10.84375 -19.703125 "/></g></g></g><g fill="#ffffff" fill-opacity="1"><g transform="translate(438.539734, 536.798561)"><g><path d="M 17.375 -14.421875 L 17.203125 -20.59375 L 1.375 -20.59375 L 1.375 -19.703125 L 4.125 -19.703125 L 4.125 -0.890625 L 1.375 -0.890625 L 1.375 0 L 17.203125 0 L 17.375 -6.1875 L 16.6875 -6.1875 L 16.203125 -4.5625 C 15.628906 -2.613281 14.785156 -1.445312 13.671875 -1.0625 C 13.328125 -0.945312 12.957031 -0.890625 12.5625 -0.890625 L 7.078125 -0.890625 L 7.078125 -10.125 L 14.140625 -10.125 L 14.140625 -11.125 L 7.078125 -11.125 L 7.078125 -19.703125 L 12.5625 -19.703125 C 14.207031 -19.703125 15.390625 -18.59375 16.109375 -16.375 C 16.148438 -16.238281 16.179688 -16.125 16.203125 -16.03125 L 16.6875 -14.421875 Z M 17.375 -14.421875 "/></g></g></g><g fill="#ffffff" fill-opacity="1"><g transform="translate(462.682138, 536.798561)"><g><path d="M 5.25 -11.5 C 5.25 -12.226562 4.914062 -12.742188 4.25 -13.046875 C 4.019531 -13.140625 3.796875 -13.1875 3.578125 -13.1875 C 2.835938 -13.1875 2.320312 -12.851562 2.03125 -12.1875 C 1.9375 -11.957031 1.890625 -11.726562 1.890625 -11.5 C 1.890625 -10.769531 2.222656 -10.253906 2.890625 -9.953125 C 3.117188 -9.859375 3.347656 -9.8125 3.578125 -9.8125 C 4.304688 -9.8125 4.816406 -10.144531 5.109375 -10.8125 C 5.203125 -11.039062 5.25 -11.269531 5.25 -11.5 Z M 5.25 -3.46875 C 5.25 -4.195312 4.914062 -4.710938 4.25 -5.015625 C 4.019531 -5.109375 3.796875 -5.15625 3.578125 -5.15625 C 2.835938 -5.15625 2.320312 -4.820312 2.03125 -4.15625 C 1.9375 -3.925781 1.890625 -3.695312 1.890625 -3.46875 C 1.890625 -2.738281 2.222656 -2.222656 2.890625 -1.921875 C 3.117188 -1.828125 3.347656 -1.78125 3.578125 -1.78125 C 4.304688 -1.78125 4.816406 -2.113281 5.109375 -2.78125 C 5.203125 -3.007812 5.25 -3.238281 5.25 -3.46875 Z M 5.25 -3.46875 "/></g></g></g><g fill="#acbca2" fill-opacity="1"><g transform="translate(255.366363, 644.775696)"><g><path d="M 19.53125 -6.3125 C 19.53125 -8.695312 18.242188 -10.609375 15.671875 -12.046875 C 15.160156 -12.316406 13.59375 -13.03125 10.96875 -14.1875 C 8.582031 -15.195312 7.082031 -16.238281 6.46875 -17.3125 C 6.144531 -17.90625 5.984375 -18.535156 5.984375 -19.203125 C 5.984375 -20.992188 6.851562 -22.238281 8.59375 -22.9375 C 9.34375 -23.226562 10.175781 -23.375 11.09375 -23.375 C 13.34375 -23.375 15.054688 -22.613281 16.234375 -21.09375 C 17.003906 -20.050781 17.378906 -18.78125 17.359375 -17.28125 L 18.5625 -17.28125 L 18.5625 -24.3125 C 17.914062 -24.3125 17.539062 -24.109375 17.4375 -23.703125 C 17.382812 -23.515625 17.359375 -23.257812 17.359375 -22.9375 C 15.453125 -23.976562 13.304688 -24.5 10.921875 -24.5 C 8.035156 -24.5 5.785156 -23.695312 4.171875 -22.09375 C 3.109375 -20.96875 2.578125 -19.65625 2.578125 -18.15625 C 2.578125 -15.90625 3.832031 -14.070312 6.34375 -12.65625 C 6.800781 -12.414062 8.328125 -11.734375 10.921875 -10.609375 C 13.335938 -9.535156 14.867188 -8.453125 15.515625 -7.359375 C 15.859375 -6.734375 16.03125 -6.0625 16.03125 -5.34375 C 16.03125 -3.46875 15.117188 -2.113281 13.296875 -1.28125 C 12.441406 -0.90625 11.492188 -0.71875 10.453125 -0.71875 C 6.347656 -0.769531 4.066406 -3.273438 3.609375 -8.234375 L 2.40625 -8.234375 L 2.40625 0.078125 C 3.050781 0.078125 3.425781 -0.109375 3.53125 -0.484375 C 3.582031 -0.691406 3.609375 -1.078125 3.609375 -1.640625 C 5.671875 -0.273438 8.015625 0.40625 10.640625 0.40625 C 13.722656 0.40625 16.109375 -0.425781 17.796875 -2.09375 C 18.953125 -3.269531 19.53125 -4.675781 19.53125 -6.3125 Z M 19.53125 -6.3125 "/></g></g></g><g fill="#acbca2" fill-opacity="1"><g transform="translate(287.431159, 644.775696)"><g><path d="M 14.265625 -24.5 C 11.046875 -24.5 8.285156 -23.441406 5.984375 -21.328125 C 3.460938 -19.003906 2.203125 -15.96875 2.203125 -12.21875 C 2.203125 -7.875 3.691406 -4.523438 6.671875 -2.171875 C 8.835938 -0.453125 11.328125 0.40625 14.140625 0.40625 C 17.304688 0.40625 20.023438 -0.664062 22.296875 -2.8125 C 24.835938 -5.195312 26.109375 -8.273438 26.109375 -12.046875 C 26.109375 -16.472656 24.570312 -19.835938 21.5 -22.140625 C 19.40625 -23.710938 16.992188 -24.5 14.265625 -24.5 Z M 14.265625 -0.71875 C 10.378906 -0.71875 7.890625 -2.796875 6.796875 -6.953125 C 6.421875 -8.421875 6.234375 -10.117188 6.234375 -12.046875 C 6.234375 -18.421875 8.160156 -22.117188 12.015625 -23.140625 C 12.679688 -23.296875 13.390625 -23.375 14.140625 -23.375 C 19.421875 -23.320312 22.070312 -19.601562 22.09375 -12.21875 C 22.09375 -6.375 20.472656 -2.742188 17.234375 -1.328125 C 16.328125 -0.921875 15.335938 -0.71875 14.265625 -0.71875 Z M 14.265625 -0.71875 "/></g></g></g><g fill="#acbca2" fill-opacity="1"><g transform="translate(326.284593, 644.775696)"><g><path d="M 13.09375 0 L 13.09375 -1.046875 L 8.28125 -1.046875 L 8.28125 -11.859375 L 16.546875 -11.859375 L 16.546875 -13.015625 L 8.28125 -13.015625 L 8.28125 -23.0625 L 14.703125 -23.0625 C 16.628906 -23.0625 18.007812 -21.765625 18.84375 -19.171875 C 18.894531 -19.003906 18.9375 -18.867188 18.96875 -18.765625 L 19.53125 -16.875 L 20.328125 -16.875 L 20.125 -24.109375 L 1.609375 -24.109375 L 1.609375 -23.0625 L 4.828125 -23.0625 L 4.828125 -1.046875 L 1.609375 -1.046875 L 1.609375 0 Z M 13.09375 0 "/></g></g></g><g fill="#acbca2" fill-opacity="1"><g transform="translate(357.545995, 644.775696)"><g><path d="M 11.453125 0 C 11.453125 -0.59375 11.238281 -0.925781 10.8125 -1 C 10.675781 -1.03125 10.539062 -1.046875 10.40625 -1.046875 L 8.28125 -1.046875 L 8.28125 -23.0625 L 11.453125 -23.0625 L 11.453125 -24.109375 L 1.609375 -24.109375 L 1.609375 -23.0625 L 4.828125 -23.0625 L 4.828125 -1.046875 L 1.609375 -1.046875 L 1.609375 0 Z M 11.453125 0 "/></g></g></g><g fill="#acbca2" fill-opacity="1"><g transform="translate(381.135031, 644.775696)"><g><path d="M 24.625 0 C 24.625 -0.59375 24.410156 -0.925781 23.984375 -1 C 23.847656 -1.03125 23.710938 -1.046875 23.578125 -1.046875 L 22.21875 -1.046875 L 13.015625 -24.109375 L 11.53125 -24.109375 L 2.53125 -1.046875 L 0 -1.046875 L 0 0 L 7.15625 0 C 7.15625 -0.59375 6.941406 -0.925781 6.515625 -1 C 6.378906 -1.03125 6.242188 -1.046875 6.109375 -1.046875 L 4.140625 -1.046875 L 7.15625 -8.84375 L 15.546875 -8.84375 L 18.5625 -1.046875 L 15.953125 -1.046875 L 15.953125 0 Z M 15.109375 -10 L 7.59375 -10 L 11.328125 -19.734375 Z M 15.109375 -10 "/></g></g></g><g fill="#acbca2" fill-opacity="1"><g transform="translate(416.29287, 644.775696)"><g/></g></g><g fill="#acbca2" fill-opacity="1"><g transform="translate(434.659877, 644.775696)"><g><path d="M 13.09375 0 L 13.09375 -1.046875 L 8.28125 -1.046875 L 8.28125 -11.859375 L 16.546875 -11.859375 L 16.546875 -13.015625 L 8.28125 -13.015625 L 8.28125 -23.0625 L 14.703125 -23.0625 C 16.628906 -23.0625 18.007812 -21.765625 18.84375 -19.171875 C 18.894531 -19.003906 18.9375 -18.867188 18.96875 -18.765625 L 19.53125 -16.875 L 20.328125 -16.875 L 20.125 -24.109375 L 1.609375 -24.109375 L 1.609375 -23.0625 L 4.828125 -23.0625 L 4.828125 -1.046875 L 1.609375 -1.046875 L 1.609375 0 Z M 13.09375 0 "/></g></g></g><g fill="#acbca2" fill-opacity="1"><g transform="translate(465.921279, 644.775696)"><g><path d="M 19.203125 0 L 19.40625 -8.03125 L 18.609375 -8.03125 L 17.921875 -5.34375 C 17.273438 -2.875 16.203125 -1.46875 14.703125 -1.125 C 14.378906 -1.070312 14.070312 -1.046875 13.78125 -1.046875 L 8.28125 -1.046875 L 8.28125 -23.0625 L 11.65625 -23.0625 L 11.65625 -24.109375 L 1.609375 -24.109375 L 1.609375 -23.0625 L 4.828125 -23.0625 L 4.828125 -1.046875 L 1.609375 -1.046875 L 1.609375 0 Z M 19.203125 0 "/></g></g></g><g fill="#acbca2" fill-opacity="1"><g transform="translate(496.258795, 644.775696)"><g><path d="M 14.265625 -24.5 C 11.046875 -24.5 8.285156 -23.441406 5.984375 -21.328125 C 3.460938 -19.003906 2.203125 -15.96875 2.203125 -12.21875 C 2.203125 -7.875 3.691406 -4.523438 6.671875 -2.171875 C 8.835938 -0.453125 11.328125 0.40625 14.140625 0.40625 C 17.304688 0.40625 20.023438 -0.664062 22.296875 -2.8125 C 24.835938 -5.195312 26.109375 -8.273438 26.109375 -12.046875 C 26.109375 -16.472656 24.570312 -19.835938 21.5 -22.140625 C 19.40625 -23.710938 16.992188 -24.5 14.265625 -24.5 Z M 14.265625 -0.71875 C 10.378906 -0.71875 7.890625 -2.796875 6.796875 -6.953125 C 6.421875 -8.421875 6.234375 -10.117188 6.234375 -12.046875 C 6.234375 -18.421875 8.160156 -22.117188 12.015625 -23.140625 C 12.679688 -23.296875 13.390625 -23.375 14.140625 -23.375 C 19.421875 -23.320312 22.070312 -19.601562 22.09375 -12.21875 C 22.09375 -6.375 20.472656 -2.742188 17.234375 -1.328125 C 16.328125 -0.921875 15.335938 -0.71875 14.265625 -0.71875 Z M 14.265625 -0.71875 "/></g></g></g><g fill="#acbca2" fill-opacity="1"><g transform="translate(535.112234, 644.775696)"><g><path d="M 11.453125 0 L 11.453125 -1.046875 L 8.28125 -1.046875 L 8.28125 -11.046875 L 12.09375 -11.046875 L 18.515625 0 L 24.59375 0 C 24.59375 -0.59375 24.429688 -0.925781 24.109375 -1 C 23.972656 -1.03125 23.8125 -1.046875 23.625 -1.046875 L 22.09375 -1.046875 L 15.625 -11.40625 C 18.175781 -12.019531 19.914062 -13.347656 20.84375 -15.390625 C 21.195312 -16.191406 21.375 -17.007812 21.375 -17.84375 C 21.375 -19.84375 20.503906 -21.445312 18.765625 -22.65625 C 17.347656 -23.625 15.59375 -24.109375 13.5 -24.109375 L 1.609375 -24.109375 L 1.609375 -23.0625 L 4.828125 -23.0625 L 4.828125 -1.046875 L 1.609375 -1.046875 L 1.609375 0 Z M 12.296875 -23.0625 C 14.597656 -23.0625 16.191406 -22.125 17.078125 -20.25 C 17.421875 -19.46875 17.59375 -18.648438 17.59375 -17.796875 C 17.59375 -15.867188 16.925781 -14.367188 15.59375 -13.296875 C 14.675781 -12.578125 13.617188 -12.21875 12.421875 -12.21875 L 8.28125 -12.21875 L 8.28125 -23.0625 Z M 12.296875 -23.0625 "/></g></g></g><g fill="#acbca2" fill-opacity="1"><g transform="translate(570.229915, 644.775696)"><g><path d="M 20.328125 -16.875 L 20.125 -24.109375 L 1.609375 -24.109375 L 1.609375 -23.0625 L 4.828125 -23.0625 L 4.828125 -1.046875 L 1.609375 -1.046875 L 1.609375 0 L 20.125 0 L 20.328125 -7.234375 L 19.53125 -7.234375 L 18.96875 -5.34375 C 18.289062 -3.0625 17.296875 -1.695312 15.984375 -1.25 C 15.585938 -1.113281 15.160156 -1.046875 14.703125 -1.046875 L 8.28125 -1.046875 L 8.28125 -11.859375 L 16.546875 -11.859375 L 16.546875 -13.015625 L 8.28125 -13.015625 L 8.28125 -23.0625 L 14.703125 -23.0625 C 16.628906 -23.0625 18.007812 -21.765625 18.84375 -19.171875 C 18.894531 -19.003906 18.9375 -18.867188 18.96875 -18.765625 L 19.53125 -16.875 Z M 20.328125 -16.875 "/></g></g></g><g fill="#acbca2" fill-opacity="1"><g transform="translate(603.098107, 644.775696)"><g><path d="M 19.53125 -6.3125 C 19.53125 -8.695312 18.242188 -10.609375 15.671875 -12.046875 C 15.160156 -12.316406 13.59375 -13.03125 10.96875 -14.1875 C 8.582031 -15.195312 7.082031 -16.238281 6.46875 -17.3125 C 6.144531 -17.90625 5.984375 -18.535156 5.984375 -19.203125 C 5.984375 -20.992188 6.851562 -22.238281 8.59375 -22.9375 C 9.34375 -23.226562 10.175781 -23.375 11.09375 -23.375 C 13.34375 -23.375 15.054688 -22.613281 16.234375 -21.09375 C 17.003906 -20.050781 17.378906 -18.78125 17.359375 -17.28125 L 18.5625 -17.28125 L 18.5625 -24.3125 C 17.914062 -24.3125 17.539062 -24.109375 17.4375 -23.703125 C 17.382812 -23.515625 17.359375 -23.257812 17.359375 -22.9375 C 15.453125 -23.976562 13.304688 -24.5 10.921875 -24.5 C 8.035156 -24.5 5.785156 -23.695312 4.171875 -22.09375 C 3.109375 -20.96875 2.578125 -19.65625 2.578125 -18.15625 C 2.578125 -15.90625 3.832031 -14.070312 6.34375 -12.65625 C 6.800781 -12.414062 8.328125 -11.734375 10.921875 -10.609375 C 13.335938 -9.535156 14.867188 -8.453125 15.515625 -7.359375 C 15.859375 -6.734375 16.03125 -6.0625 16.03125 -5.34375 C 16.03125 -3.46875 15.117188 -2.113281 13.296875 -1.28125 C 12.441406 -0.90625 11.492188 -0.71875 10.453125 -0.71875 C 6.347656 -0.769531 4.066406 -3.273438 3.609375 -8.234375 L 2.40625 -8.234375 L 2.40625 0.078125 C 3.050781 0.078125 3.425781 -0.109375 3.53125 -0.484375 C 3.582031 -0.691406 3.609375 -1.078125 3.609375 -1.640625 C 5.671875 -0.273438 8.015625 0.40625 10.640625 0.40625 C 13.722656 0.40625 16.109375 -0.425781 17.796875 -2.09375 C 18.953125 -3.269531 19.53125 -4.675781 19.53125 -6.3125 Z M 19.53125 -6.3125 "/></g></g></g></svg>